<?xml version="1.0" standalone="no"?>
<!DOCTYPE svg PUBLIC "-//W3C//DTD SVG 1.1//EN" "http://www.w3.org/Graphics/SVG/1.1/DTD/svg11.dtd" >
<svg xmlns="http://www.w3.org/2000/svg">
<metadata></metadata>
<defs>
<font id="db_helvethaica_x77_bdcond" horiz-adv-x="0" >
<font-face units-per-em="2048" ascent="1638" descent="-410" />
<missing-glyph horiz-adv-x="366" />
<glyph unicode="&#x2b;&#x2d;" horiz-adv-x="774" d="M62 0v142h650v-142h-650zM62 410v141h252v219h147v-219h251v-141h-251v-224h-147v224h-252z" />
<glyph unicode="&#x2e;&#x2e;&#x2e;" horiz-adv-x="1466" d="M156 0v182h178v-182h-178zM643 0v182h181v-182h-181zM1132 0v182h176v-182h-176z" />
<glyph unicode="&#x3c;&#x3d;" horiz-adv-x="821" d="M82 0v144h658v-144h-658zM82 512v116l658 322v-152l-470 -226l470 -230v-154z" />
<glyph unicode="&#x3e;&#x3d;" horiz-adv-x="821" d="M82 0v144h658v-144h-658zM82 188v154l467 230l-467 226v152l658 -322v-116z" />
<glyph unicode="&#xe4f;&#x22;" horiz-adv-x="1044" d="M62 452q0 64 16 123t46 110.5t72 93.5t93 72t110 46.5t123 16.5t123 -16.5t110 -46.5t93 -72t72 -93.5t46.5 -110.5t16.5 -123t-16.5 -123t-46.5 -110t-72 -93t-93 -72t-110 -46t-123 -16t-123 16t-110 46t-93 72t-72 93t-46 110t-16 123zM194 454q0 -45 12 -86.5 t33.5 -78t51 -66t66.5 -51.5t78.5 -33.5t86.5 -11.5t87 11.5t78.5 33.5t66.5 51.5t51 66t33 78.5t12 86q0 45 -12 87.5t-33 78.5t-51 66t-66.5 51.5t-78.5 33t-87 11.5t-86.5 -11.5t-78.5 -33t-66.5 -51.5t-51 -66t-33.5 -78.5t-12 -87.5zM291 454q0 48 18.5 90t49.5 74 t73 50t90 18t90 -18t73.5 -50t50 -74t18.5 -90t-18.5 -90t-50 -73t-73.5 -49.5t-90 -18.5t-90 18.5t-73 49.5t-49.5 73t-18.5 90zM324 1258h141l-15 -232h-112zM408 454q0 -24 9 -44.5t24 -36t36 -24.5t45 -9t45 9t36.5 24.5t24.5 36t9 44.5t-9 45t-24.5 37t-36.5 25t-45 9 t-45 -9t-36 -25t-24 -37t-9 -45zM555 1258h141l-14 -232h-112z" />
<glyph unicode="&#xe0e;&#xe3a;" horiz-adv-x="790" d="M18 0v148h68v444q0 23 -16 41.5t-48 30.5q29 59 69.5 102t87.5 71.5t100.5 42t109.5 13.5q39 0 78 -6.5t74 -20.5t66 -34t53.5 -47.5t35 -61t12.5 -74.5v-935h-159q-8 14 -20.5 27t-31 24t-43 17.5t-56.5 6.5t-60 -8t-53 -22.5t-49 -34.5t-46 -44v168q16 14 38 30 t48.5 29t57.5 21t64 8q38 0 72 -8q32 -9 56 -18v712q0 54 -37.5 86t-105.5 32q-50 0 -87.5 -15t-59.5 -39q14 -16 22 -37.5t8 -52.5v-596h-248zM514 -461q0 22 8 41.5t21.5 34t32 23t38.5 8.5q22 0 42 -8.5t34 -23t22.5 -33.5t8.5 -42q0 -20 -8.5 -38.5t-22.5 -32t-34 -21.5 t-42 -8q-21 0 -39 8t-31.5 21.5t-21.5 32t-8 38.5z" />
<glyph unicode="&#xe0f;&#xe3a;" horiz-adv-x="790" d="M18 0v148h68v444q0 23 -16 41.5t-48 30.5q29 59 69.5 102t87.5 71.5t100.5 42t109.5 13.5q39 0 78 -6.5t74 -20.5t66 -34t53.5 -47.5t35 -61t12.5 -74.5v-935h-163q-2 14 -6.5 28t-12 25.5t-18 18.5t-22.5 7t-21 -6.5t-16 -17.5t-10 -26t-3 -29h-139q0 16 -2.5 31 t-7.5 26.5t-14 18.5t-23 7q-12 0 -20.5 -8.5t-14.5 -20.5t-9 -27t-3 -27h-160q0 58 15.5 101t42.5 71t61 41q36 13 74 13t72 -15.5t54 -43.5q23 28 46.5 40.5t54.5 12.5q20 0 35.5 -5t27.5 -13v706q0 54 -37.5 86t-105.5 32q-50 0 -87.5 -15t-59.5 -39q14 -16 22 -37.5 t8 -52.5v-596h-248zM514 -461q0 22 8 41.5t21.5 34t32 23t38.5 8.5q22 0 42 -8.5t34 -23t22.5 -33.5t8.5 -42q0 -20 -8.5 -38.5t-22.5 -32t-34 -21.5t-42 -8q-21 0 -39 8t-31.5 21.5t-21.5 32t-8 38.5z" />
<glyph unicode="&#xe0e;&#xe38;" horiz-adv-x="790" d="M18 0v148h68v444q0 23 -16 41.5t-48 30.5q29 59 69.5 102t87.5 71.5t100.5 42t109.5 13.5q39 0 78 -6.5t74 -20.5t66 -34t53.5 -47.5t35 -61t12.5 -74.5v-935h-159q-8 14 -20.5 27t-31 24t-43 17.5t-56.5 6.5t-60 -8t-53 -22.5t-49 -34.5t-46 -44v168q16 14 38 30 t48.5 29t57.5 21t64 8q38 0 72 -8q32 -9 56 -18v712q0 54 -37.5 86t-105.5 32q-50 0 -87.5 -15t-59.5 -39q14 -16 22 -37.5t8 -52.5v-596h-248zM484 -366h224v-326h-159v192h-65v134z" />
<glyph unicode="&#xe0f;&#xe38;" horiz-adv-x="790" d="M18 0v148h68v444q0 23 -16 41.5t-48 30.5q29 59 69.5 102t87.5 71.5t100.5 42t109.5 13.5q39 0 78 -6.5t74 -20.5t66 -34t53.5 -47.5t35 -61t12.5 -74.5v-935h-163q-2 14 -6.5 28t-12 25.5t-18 18.5t-22.5 7t-21 -6.5t-16 -17.5t-10 -26t-3 -29h-139q0 16 -2.5 31 t-7.5 26.5t-14 18.5t-23 7q-12 0 -20.5 -8.5t-14.5 -20.5t-9 -27t-3 -27h-160q0 58 15.5 101t42.5 71t61 41q36 13 74 13t72 -15.5t54 -43.5q23 28 46.5 40.5t54.5 12.5q20 0 35.5 -5t27.5 -13v706q0 54 -37.5 86t-105.5 32q-50 0 -87.5 -15t-59.5 -39q14 -16 22 -37.5 t8 -52.5v-596h-248zM484 -366h224v-326h-159v192h-65v134z" />
<glyph unicode="&#xe0e;&#xe39;" horiz-adv-x="790" d="M18 0v148h68v444q0 23 -16 41.5t-48 30.5q29 59 69.5 102t87.5 71.5t100.5 42t109.5 13.5q39 0 78 -6.5t74 -20.5t66 -34t53.5 -47.5t35 -61t12.5 -74.5v-935h-159q-8 14 -20.5 27t-31 24t-43 17.5t-56.5 6.5t-60 -8t-53 -22.5t-49 -34.5t-46 -44v168q16 14 38 30 t48.5 29t57.5 21t64 8q38 0 72 -8q32 -9 56 -18v712q0 54 -37.5 86t-105.5 32q-50 0 -87.5 -15t-59.5 -39q14 -16 22 -37.5t8 -52.5v-596h-248zM230 -366h220v-150q0 -64 52 -64q51 0 51 64v150h155v-150q0 -40 -11 -76t-35 -63.5t-63.5 -43.5t-96.5 -16t-96.5 16 t-63.5 43.5t-35 63.5t-12 76v22h-65v128z" />
<glyph unicode="&#xe0f;&#xe39;" horiz-adv-x="790" d="M18 0v148h68v444q0 23 -16 41.5t-48 30.5q29 59 69.5 102t87.5 71.5t100.5 42t109.5 13.5q39 0 78 -6.5t74 -20.5t66 -34t53.5 -47.5t35 -61t12.5 -74.5v-935h-163q-2 14 -6.5 28t-12 25.5t-18 18.5t-22.5 7t-21 -6.5t-16 -17.5t-10 -26t-3 -29h-139q0 16 -2.5 31 t-7.5 26.5t-14 18.5t-23 7q-12 0 -20.5 -8.5t-14.5 -20.5t-9 -27t-3 -27h-160q0 58 15.5 101t42.5 71t61 41q36 13 74 13t72 -15.5t54 -43.5q23 28 46.5 40.5t54.5 12.5q20 0 35.5 -5t27.5 -13v706q0 54 -37.5 86t-105.5 32q-50 0 -87.5 -15t-59.5 -39q14 -16 22 -37.5 t8 -52.5v-596h-248zM230 -366h220v-150q0 -64 52 -64q51 0 51 64v150h155v-150q0 -40 -11 -76t-35 -63.5t-63.5 -43.5t-96.5 -16t-96.5 16t-63.5 43.5t-35 63.5t-12 76v22h-65v128z" />
<glyph unicode="&#xd;" horiz-adv-x="415" />
<glyph unicode=" "  horiz-adv-x="366" />
<glyph unicode="&#x09;" horiz-adv-x="366" />
<glyph unicode="&#xa0;" horiz-adv-x="366" />
<glyph unicode="!" horiz-adv-x="489" d="M146 0v192h198v-192h-198zM146 708v336h198v-336l-37 -438h-127z" />
<glyph unicode="&#x22;" horiz-adv-x="409" d="M53 708v336h115v-336h-115zM242 708v336h114v-336h-114z" />
<glyph unicode="#" horiz-adv-x="860" d="M35 336l39 127h149l35 115h-150l42 126h153l109 336h128l-108 -336h110l107 336h133l-108 -336h154l-40 -126h-157l-35 -115h154l-38 -127h-157l-107 -336h-132l106 336h-110l-109 -336h-129l108 336h-147zM358 463h107l35 115h-109z" />
<glyph unicode="$" horiz-adv-x="731" d="M30 360h181q-2 -46 2.5 -82t16 -62t33 -42t55.5 -24v312q-39 14 -73.5 27t-62.5 27q-40 20 -66.5 44t-43 53t-22.5 63q-7 36 -7 76q0 64 20.5 115.5t56.5 90t87 61.5t111 29v109h102v-111q62 -8 112 -32.5t83.5 -66t48.5 -101.5q16 -60 12 -136h-174q2 30 -1 56.5t-13 48 t-26.5 37.5t-41.5 24v-277q84 -32 140 -65t89 -68.5t46 -75t13 -85.5q0 -71 -19 -128t-56 -98.5t-91 -66t-122 -30.5v-124h-102v124q-76 6 -132 31.5t-91.5 72t-51.5 114.5q-17 68 -13 160zM217 748q0 -40 26.5 -67t74.5 -47v250q-28 -5 -47.5 -18t-31 -31.5t-17 -40.5 t-5.5 -46zM420 150q24 5 45 16t36 27.5t23 38.5t8 50q0 35 -8 58.5t-23 39.5t-35.5 26t-45.5 20v-276z" />
<glyph unicode="%" horiz-adv-x="1159" d="M72 740q0 50 10 96t34.5 81.5t65.5 57t104 21.5q41 0 72.5 -11t54.5 -29t38 -43t24 -54.5t13 -61.5t4 -64q0 -74 -14 -125.5t-41 -83.5t-68 -45.5t-97 -9.5q-48 3 -85.5 17t-63 45.5t-38.5 82t-13 126.5zM219 717q0 -18 1.5 -39.5t8 -39.5t19 -30t34.5 -12t34 12t18.5 30 t8 39t1.5 40v28.5t-2 33t-6 32t-11 28.5t-19 20t-28 7q-15 0 -25 -7t-16.5 -20t-10 -28.5t-5 -32t-2 -32.5t-0.5 -29zM280 -10l462 1022h130l-454 -1022h-138zM666 278q0 50 10 96.5t34.5 81.5t66 55.5t105.5 20.5q62 0 102 -22t63 -58t32 -83t9 -95q0 -76 -16.5 -127 t-46 -83t-70.5 -45.5t-91 -12.5q-38 0 -74 14t-63.5 46t-44 84t-16.5 128zM813 252q0 -17 1.5 -37.5t8.5 -38t20 -29.5t35 -12q21 0 33.5 12t18.5 29.5t8 38t2 37.5v30.5t-2 33t-6 32.5t-11 28t-18 20t-27 8t-26.5 -8t-17.5 -20t-11 -28t-5.5 -32.5t-2 -33t-0.5 -30.5z" />
<glyph unicode="&#x26;" horiz-adv-x="977" d="M88 299q0 58 15 102t43 78.5t66.5 62.5t84.5 54q-19 24 -35 47t-27 48t-17.5 52.5t-6.5 61.5q0 46 16 88t45.5 73.5t72.5 50.5t95 19q56 0 103 -15t81 -44t53 -71t19 -93q0 -42 -14 -77.5t-38 -66.5t-55 -57t-65 -49l156 -197q9 34 15.5 72t8.5 78h166q-4 -42 -9.5 -82 t-14 -78t-20.5 -73t-30 -66l179 -219h-217l-68 80q-51 -48 -115.5 -72t-140.5 -24q-78 0 -142 22t-109 63t-70 100t-25 132zM270 297q0 -36 14 -65.5t37.5 -49.5t56 -31t70.5 -11q40 0 77 18.5t65 46.5l-205 270q-27 -19 -48 -37t-36 -38t-23 -45t-8 -58zM379 817 q0 -18 5 -35.5t13 -34t18.5 -32t20.5 -31.5q18 13 33 26.5t26.5 28.5t18 33t6.5 41q0 14 -4.5 28.5t-13.5 26t-22.5 18.5t-31.5 7q-16 0 -29 -6.5t-22 -17.5t-13.5 -24.5t-4.5 -27.5z" />
<glyph unicode="'" horiz-adv-x="366" d="M125 708v336h115v-336h-115z" />
<glyph unicode="(" horiz-adv-x="489" d="M76 362q0 70 7 134t21 123t34 115t47 112t61 114t74 120h151q-28 -54 -53.5 -106t-48 -104t-41 -106.5t-32 -114.5t-21 -127.5t-7.5 -144.5q0 -92 12 -178.5t38 -172.5t68 -175t100 -185h-166q-53 82 -98 165t-77.5 170t-50.5 177t-18 184z" />
<glyph unicode=")" horiz-adv-x="489" d="M4 -334q58 96 99 185t67.5 175t38.5 172t12 179q0 78 -7.5 145t-20.5 127t-32 114.5t-41 106.5t-48 104t-54 106h152q40 -62 73.5 -120t60.5 -114t47.5 -112t34.5 -115t21 -123t7 -134q0 -94 -18.5 -184t-51 -177t-77 -170t-97.5 -165h-166z" />
<glyph unicode="*" horiz-adv-x="731" d="M106 856l46 112l153 -60v163h129v-161q20 6 40.5 14l41 16t39.5 16q19 6 35 12l36 -118l-153 -52l105 -124l-105 -76l-109 131l-98 -123l-112 68l104 120z" />
<glyph unicode="+" horiz-adv-x="815" d="M82 282v142h252v252h148v-252h251v-142h-251v-258h-148v258h-252z" />
<glyph unicode="," horiz-adv-x="366" d="M96 0v182h176v-174q0 -91 -44 -150q-46 -58 -132 -77v113q22 2 36 12t21 25t9.5 33.5t3.5 35.5h-70z" />
<glyph unicode="-" horiz-adv-x="585" d="M82 282v142h422v-142h-422z" />
<glyph unicode="." horiz-adv-x="366" d="M96 0v182h176v-182h-176z" />
<glyph unicode="/" horiz-adv-x="465" d="M-28 -60l370 1127h152l-375 -1127h-147z" />
<glyph unicode="0" horiz-adv-x="696" d="M35 496q0 36 0.5 77t3.5 84t11 87t22.5 83.5t37 74t55.5 60t78 40t105 14.5t105 -14.5t78 -40t55 -60t36.5 -74t22 -83.5t11 -87t4.5 -85v-76q0 -42 -1.5 -87t-6 -89t-13.5 -86t-24 -79.5t-38 -69t-55 -54t-75 -35t-99 -12.5q-74 0 -126 22t-87 60t-55 88.5t-30 107.5 t-12.5 116.5t-2.5 117.5zM221 512q0 -40 0.5 -82t4 -82t11 -75t21.5 -62t36 -42t54 -15t53.5 15t35 42t21.5 62t11 75t3.5 82t0.5 82q0 36 -0.5 75t-4.5 76t-11.5 70.5t-21.5 59t-35.5 40.5t-51.5 15q-32 0 -54.5 -16t-37 -43.5t-21.5 -63t-10 -73t-3.5 -74t-0.5 -66.5z" />
<glyph unicode="1" horiz-adv-x="694" d="M68 676v154q56 0 98 9t73 29t49 52q18 34 26 82h161v-1002h-189v710q-51 -24 -105.5 -31t-112.5 -3z" />
<glyph unicode="2" horiz-adv-x="694" d="M33 0q0 52 4 100t17.5 92t39.5 85t70 81l200 170q22 20 38.5 41.5t27.5 45t16.5 49.5t5.5 59q0 27 -6 49.5t-19.5 39t-35 25.5t-53.5 9q-38 0 -60 -17.5t-33 -46t-14 -64.5t-1 -73h-189v74q0 63 21 117.5t60.5 95t95 63.5t124.5 23q74 0 130 -22t94 -61t56.5 -94 t18.5 -122q0 -56 -11.5 -101.5t-34 -84.5t-55 -74t-73.5 -70l-187 -153q-22 -17 -33 -31.5t-17 -36.5h422v-168h-619z" />
<glyph unicode="3" horiz-adv-x="694" d="M24 336h187q-3 -38 1 -70t18.5 -56t41 -37t66.5 -13q33 0 57 9t39.5 25.5t23.5 39.5q7 22 7 50q0 49 -11 82t-36 52.5t-66 27.5q-40 6 -98 6v148q38 2 71 6t58 18t39 40t14 69q0 24 -5 45t-17.5 36t-32.5 23.5t-49 8.5q-34 0 -56 -12t-33.5 -33t-15.5 -50t-4 -63h-178 q-4 73 11.5 133.5t51 104.5t92 68t134.5 24q66 0 120 -19t91.5 -54.5t58.5 -85.5q20 -49 20 -111q0 -32 -4.5 -61.5t-14.5 -56t-25.5 -49.5t-37.5 -41q28 -18 49 -41t34.5 -52t20 -61t6.5 -66q0 -74 -18 -135.5t-57 -106t-100 -68.5t-147 -24t-145.5 24.5t-95.5 70 t-51 110.5q-16 65 -14 145z" />
<glyph unicode="4" horiz-adv-x="671" d="M10 230v145l398 627h157v-602h93v-170h-93v-230h-186v230h-369zM217 398h162v188l4 86l-29 -60z" />
<glyph unicode="5" horiz-adv-x="694" d="M35 303h186q-1 -37 4.5 -64.5t19 -46t35.5 -27.5t54 -9q34 0 59 16t41 42t23.5 60t7.5 70q0 33 -5.5 66.5t-21 60.5t-42 44t-66.5 17q-20 0 -38.5 -4t-35 -14t-30.5 -26q-16 -18 -28 -42h-153l65 556h504v-170h-344l-16 -117q-2 -8 -4 -16.5t-4 -16.5t-4 -18q24 14 53 23 t59 9q79 0 135.5 -28t92.5 -75t53 -107q17 -62 17 -126q0 -45 -7.5 -90.5t-23 -86.5t-40.5 -77.5t-60 -63t-81 -41.5t-104 -15q-76 0 -133.5 20t-96 60.5t-57 100t-14.5 136.5z" />
<glyph unicode="6" horiz-adv-x="694" d="M35 456q0 61 1.5 126.5t10.5 127.5t29 117t56 97t92 66t138 24q59 0 107.5 -17t84.5 -52t58 -87t29 -120h-189q-2 30 -11 51t-24 34t-33 19t-38 6q-24 0 -42 -11t-32 -30t-24 -44.5t-16 -54t-9 -57.5t-4 -57q32 34 70.5 52t78.5 18q76 0 132 -26t93 -70t55 -101.5 t18 -120.5q0 -82 -23.5 -149t-64 -114t-96.5 -72t-122 -25q-76 0 -129 20t-89 55.5t-57.5 82t-32.5 99t-14 107.5q-3 54 -3 106zM228 348q-2 -54 7 -90.5t26.5 -59t42.5 -32.5q24 -10 54 -10q24 0 42 8t31 22t22 33t14 39.5t7.5 41.5t2.5 40q0 32 -6.5 61.5t-21 53t-39 37.5 t-60.5 14q-37 0 -60.5 -15t-37.5 -38t-19 -51t-5 -54z" />
<glyph unicode="7" horiz-adv-x="694" d="M33 834v168h631v-138q-70 -91 -128 -193.5t-100.5 -212.5t-70 -225.5t-37.5 -232.5h-203q16 114 43.5 226t67 218t91 204t115.5 186h-409z" />
<glyph unicode="8" horiz-adv-x="694" d="M39 305q0 46 9.5 81.5t25.5 64t38 49.5q22 20 48 36q-26 16 -43 38t-28 49t-15 58t-4 65q0 32 6 64.5t21 62.5t37.5 56t55 45.5t74.5 30.5t96 11q60 0 110 -17.5t85 -52t54 -86.5q19 -50 19 -118q0 -28 -5.5 -56t-16 -54t-26.5 -49t-38 -41q30 -18 52.5 -42t36 -52.5 t20.5 -61t7 -66.5q0 -68 -17 -130t-53 -108t-94 -73t-140 -27q-78 0 -137 21.5t-98.5 63t-59.5 102t-20 136.5zM228 309q0 -32 6 -60.5t20.5 -50.5t39.5 -35q24 -13 62 -13q51 0 81 41t30 118q0 28 -6.5 55.5t-20.5 48.5t-36.5 33.5t-55.5 12.5t-56 -13t-37.5 -34.5 t-20.5 -48t-6 -54.5zM258 738q0 -27 6 -51.5t18 -42t30 -28t42 -10.5t40.5 11t27 29.5t14.5 41.5t4 47q0 22 -4 43.5t-15 37.5t-27 26q-18 10 -42 10q-26 0 -44 -9t-29 -24t-16 -36t-5 -45z" />
<glyph unicode="9" horiz-adv-x="694" d="M35 654q0 82 23.5 148.5t64 113.5t96 72.5t121.5 25.5q76 0 129.5 -20.5t89.5 -56t57.5 -82t32.5 -99t14 -107.5t3 -107q0 -61 -2 -125.5t-11 -126.5t-28.5 -117t-56 -97t-92.5 -66t-138 -24q-60 0 -108 17t-83.5 52t-58 86.5t-28.5 120.5h188q2 -31 11 -52t23.5 -34 t33 -18.5t38.5 -5.5q24 0 42 11t32 30t24 44t16 53.5t10 57.5q4 30 4 58q-32 -34 -71 -52t-79 -18q-76 0 -132 26t-93 70t-54.5 101t-17.5 121zM223 660q0 -32 6.5 -62t21.5 -53t39 -37t60 -14q37 0 60.5 14.5t37.5 38t20 51.5q5 28 5 54q2 54 -7 90t-27 59t-43 33t-54 10 q-36 0 -59 -18t-36 -46t-18.5 -60t-5.5 -60z" />
<glyph unicode=":" horiz-adv-x="366" d="M96 0v182h176v-182h-176zM96 592v182h176v-182h-176z" />
<glyph unicode=";" horiz-adv-x="366" d="M96 592v182h176v-182h-176zM100 0v182h176v-174q0 -91 -44 -150q-46 -58 -132 -77v113q22 2 36 12t21 25t9.5 33.5t3.5 35.5h-70z" />
<glyph unicode="&#x3c;" horiz-adv-x="823" d="M82 330v116l658 346v-151l-472 -252l472 -249v-156z" />
<glyph unicode="=" horiz-adv-x="772" d="M82 152v141h610v-141h-610zM82 416v141h610v-141h-610z" />
<glyph unicode="&#x3e;" horiz-adv-x="823" d="M84 -16v156l471 249l-471 252v151l658 -346v-116z" />
<glyph unicode="?" horiz-adv-x="731" d="M66 702q-2 47 3.5 91.5t21 83.5t40.5 71t60 55.5t81.5 36t104.5 12.5q73 0 133 -19t103 -56t66 -88t23 -115q0 -52 -12 -92t-32.5 -74t-48 -64.5t-58.5 -64.5q-19 -20 -34 -35.5t-26 -29.5t-19 -28t-12.5 -32.5t-6 -42.5t-1.5 -57h-192q0 44 2 76t6.5 56.5t13 43.5 t22.5 38t33 40t46 49q22 22 43.5 45.5t39 49.5t28 54t10.5 60q0 24 -6 47t-19 42t-33 30.5t-50 11.5t-53 -7.5t-39 -20.5t-26 -31t-15 -39.5t-7 -46t-2 -50.5h-188zM260 0v182h194v-182h-194z" />
<glyph unicode="@" horiz-adv-x="1206" d="M102 518q0 75 18.5 144t51.5 128.5t79.5 107.5t104 82.5t123 53t137.5 18.5q64 0 125 -14t114 -41t97 -66t75 -89.5t49 -111t18 -130.5q0 -75 -27 -138t-73.5 -111t-107.5 -79q-62 -30 -132 -42q-20 -2 -38 -1t-34 6t-28 15q-12 8 -19 24q-16 -14 -32 -23t-32.5 -14 t-33.5 -6t-35 -1q-44 0 -78 16.5t-58 45.5t-36 67.5t-12 82.5t8.5 88t25.5 84t42.5 75t58.5 60t74 39.5t89 14.5q37 0 70.5 -12.5t59.5 -42.5l10 34h126l-120 -376q-3 -9 -7 -19.5t-4.5 -19t4.5 -14t19 -5.5q30 0 56 11t47 30.5t37.5 45t27.5 53.5t16.5 57.5t5.5 56.5 q0 76 -27 134t-74 98t-111 61t-136 21q-53 0 -102 -15t-92 -42t-78 -63.5t-60 -81t-38.5 -94.5t-13.5 -102q0 -53 13 -103t38 -93.5t60 -79.5t77.5 -62t92 -40.5t103.5 -14.5q43 0 89.5 8.5t90.5 27t82 47t66 68.5h160q-40 -72 -95 -126t-118 -89t-133 -53t-142 -18 q-74 0 -140.5 18t-123.5 52t-103.5 81t-78.5 106t-50 127t-18 144zM447.5 428q1.5 -22 9 -40t22.5 -29t39 -11q28 0 50 14t40 36t30 50q14 28 22 56q5 14 10.5 33t8.5 39t3 40t-6 36t-19.5 26t-36.5 12q-31 2 -55.5 -9t-44.5 -31t-34 -47t-23 -56q-4 -13 -8.5 -33t-6.5 -42 t-0.5 -44z" />
<glyph unicode="A" horiz-adv-x="841" d="M0 0l318 1044h210l314 -1044h-205l-84 278h-269l-81 -278h-203zM334 448h174l-88 334z" />
<glyph unicode="B" horiz-adv-x="813" d="M86 0v1044h348h15q70 0 123 -17q58 -19 95 -55.5t55 -87t18 -112.5q0 -36 -4 -67t-15 -57.5t-29 -49t-47 -39.5q30 -17 53 -42t38 -55t22 -66q8 -34 8 -72v-7q0 -161 -88 -242q-82 -76 -239 -76q-15 0 -31 1h-322zM274 162h162q76 0 109 37t33 115q0 36 -8 61t-22 42 t-33 26t-41 13.5t-46 5.5t-49 1h-105v-301zM274 622h86q46 0 82 5t60 19t37 41q12 25 12 65v6q0 36 -8.5 60t-30.5 38t-59 20q-27 4 -66 5q-14 0 -29 -1h-84v-258z" />
<glyph unicode="C" horiz-adv-x="815" d="M51 534q0 44 2.5 90.5t9.5 92t19 89.5t31.5 82.5t47.5 71t66.5 55.5t88 36.5t112.5 13.5q84 0 148 -29.5t106 -81.5t63 -122q19 -63 19 -134v-14h-188q-1 44 -9 83t-26 68t-48 45.5t-75 16.5q-43 0 -73 -18.5t-49.5 -48.5t-31 -68.5t-17 -78.5t-6.5 -78.5t-1 -68.5 q0 -35 0.5 -76.5t5.5 -84t15.5 -82.5t30.5 -71t51 -49.5t75 -18.5q50 0 81 23t49 61t24 88q4 38 4 77v27h188v-28q0 -45 -4 -87q-6 -56 -23 -105.5t-43.5 -91t-64.5 -71.5t-88 -46.5t-113 -16.5q-68 0 -121 13t-92 37.5t-66.5 58t-46 73.5t-28.5 85t-15 92.5t-6.5 96 t-1.5 94.5z" />
<glyph unicode="D" horiz-adv-x="893" d="M86 0v1044h338q91 0 156.5 -20t110.5 -56t72 -85t41 -106.5t19 -122t5 -130.5q0 -64 -6.5 -127.5t-23 -122t-44 -108.5t-70 -87t-102.5 -58t-140 -21h-356zM276 162h160q56 0 95 22t63 68t34.5 118t10.5 172q0 36 -1.5 75t-7.5 76t-19 70t-35 59t-56 42q-35 14 -84 16 h-160v-718z" />
<glyph unicode="E" horiz-adv-x="737" d="M86 0v1044h612v-164h-424v-258h400v-163h-400v-297h426v-162h-614z" />
<glyph unicode="F" horiz-adv-x="674" d="M86 0v1044h582v-164h-394v-256h367v-163l-367 -2v-459h-188z" />
<glyph unicode="G" horiz-adv-x="899" d="M51 528q0 61 5.5 124.5t20.5 122.5t42 111t71 91t106 61.5t146 22.5t151 -26t113 -74t70 -117q22 -63 22 -139v-13h-188q0 44 -9.5 81t-29.5 63t-50.5 41t-72.5 16h-6q-46 0 -78 -15q-34 -16 -57.5 -44t-37 -65t-20 -78.5t-8 -84t-1.5 -82.5q0 -34 0.5 -74t5 -81t15 -79 t30 -68t49.5 -49q32 -19 76 -19h16q32 0 58 6q31 8 53.5 25t36.5 41t23 53t13 61t4 64h-237v164h426v-568h-162v66q-40 -42 -94.5 -62t-120.5 -20q-88 0 -150.5 23t-105 64t-67.5 94.5t-38 114t-16.5 124.5t-3.5 124z" />
<glyph unicode="H" horiz-adv-x="901" d="M86 0v1044h188v-407h352v407h189v-1044h-189v471h-352v-471h-188z" />
<glyph unicode="I" horiz-adv-x="407" d="M108 0v1044h191v-1044h-191z" />
<glyph unicode="J" horiz-adv-x="653" d="M4 282v74h188v-74q0 -26 2 -50.5t11 -43.5t27 -30.5t50 -11.5q33 0 52.5 11.5t29.5 30.5t12.5 43.5t2.5 50.5v762h189v-772q0 -87 -21 -143.5t-59 -89.5t-91 -46t-117 -13q-75 0 -127.5 19.5t-85.5 58t-48 94.5t-15 130z" />
<glyph unicode="K" horiz-adv-x="839" d="M86 0v1044h188v-426l348 426h234l-370 -448l368 -596h-228l-272 446l-76 -86v-360h-192z" />
<glyph unicode="L" horiz-adv-x="727" d="M86 0v1044h188v-880h436v-164h-624z" />
<glyph unicode="M" horiz-adv-x="1157" d="M86 0v1044h312l178 -739h4l178 739h311v-1044h-189v872l-6 -26l-214 -846h-164l-214 846l-8 32v-878h-188z" />
<glyph unicode="N" horiz-adv-x="905" d="M88 0v1044h252l288 -774v774h189v-1044h-254l-287 762v-762h-188z" />
<glyph unicode="O" horiz-adv-x="899" d="M62 542q0 60 4.5 122t19 120t40.5 109.5t69.5 89.5t106.5 60q62 22 150 22q86 0 147.5 -22t104 -60t68.5 -89.5t40 -109.5t19 -120t5 -122q0 -72 -5.5 -142t-20 -133t-40.5 -116t-69 -92t-105 -61t-148 -22t-148 22t-104.5 61t-69 92t-40.5 116t-19 133t-5 142zM250 540 q0 -98 7 -172.5t29 -125t61 -75.5t101 -25q63 0 102.5 25t60.5 75.5t28.5 125t7.5 172.5q0 76 -8 141t-30.5 114t-62.5 77q-40 27 -100 27q-58 0 -96 -27.5t-61 -76.5t-32 -114q-8 -58 -7 -125v-16z" />
<glyph unicode="P" horiz-adv-x="811" d="M88 0v1044h354q72 0 135 -16t109 -52t73 -94t27 -142q0 -69 -13 -120t-38.5 -86.5t-62 -58t-82.5 -35.5t-101 -18.5t-117 -5.5h-96v-416h-188zM276 578h90q53 0 96.5 5t74.5 22t47 48t16 85q0 46 -18 75t-49 44t-72 20q-29 4 -62 4q-13 0 -27 -1h-96v-302z" />
<glyph unicode="Q" horiz-adv-x="895" d="M62 542q0 60 4.5 122t19 120t40.5 109.5t69.5 89.5t106.5 60q62 22 150 22q86 0 147.5 -22t104 -60t68.5 -89.5t40 -109.5t19 -120t5 -122q-1 -54 -4 -107t-10 -103t-19.5 -96t-32.5 -86l119 -92l-95 -116l-120 95q-42 -30 -97 -45.5t-129 -15.5q-86 0 -148 22t-104.5 61 t-69 92t-40.5 116t-19 133t-5 142zM250 540q0 -98 7.5 -172.5t29 -125t60.5 -75.5t101 -25q42 0 76 12l-82 63l94 115l82 -66q17 50 23 118t6 156q0 76 -8 141t-30.5 114t-62.5 77q-40 27 -100 27q-58 0 -96 -27.5t-61 -76.5t-31 -114q-8 -58 -8 -125v-16z" />
<glyph unicode="R" horiz-adv-x="887" d="M90 0v1044h320q62 0 115 -5.5t98 -19t79.5 -37t58 -58t34.5 -82.5q9 -38 9 -85q0 -13 -1 -26q-2 -66 -31 -120q-28 -55 -84 -87q27 -12 45 -28t29 -39t16.5 -53t7.5 -68l7 -105t9 -83t18.5 -72.5t35.5 -75.5h-207q-8 19 -14 43.5t-10.5 51.5t-8.5 55t-6 53t-3 45t-1 34 q0 29 -7 56t-24 47.5t-45.5 32.5t-70.5 12h-181v-430h-188zM278 594h160q12 0 30 1t37 6t39 14.5t35 26t25 41.5q8 25 8 61q-1 32 -10.5 55t-25.5 38t-36.5 24t-42 13t-42 5t-37.5 1h-140v-286z" />
<glyph unicode="S" horiz-adv-x="815" d="M45 366h193q0 -13 -1 -25q-1 -39 5 -69q6 -40 26 -67t55 -40t91 -13q36 0 66.5 8t53.5 25t36.5 43t13.5 61q0 36 -10 59.5t-27 39.5t-41 27t-52 21q-34 12 -67.5 23t-65.5 22t-61 22t-53 21q-43 20 -72 44.5t-46 54t-24 64.5t-7 77q0 68 25 124t70 95t107 60.5t136 21.5 q82 0 147.5 -21.5t110.5 -63.5q44 -44 66 -108q18 -54 19 -124q0 -13 -1 -27h-189q2 14 2 28q-1 23 -5 43q-6 32 -24.5 55.5t-51 36.5t-81.5 13q-40 0 -67.5 -11.5t-44.5 -30.5t-24 -44t-7 -53q0 -20 7 -37t18.5 -30t27 -23t33.5 -16l172 -58q75 -28 126.5 -58t82.5 -64 t45 -74t14 -86q0 -78 -24 -139t-70 -104t-112 -65t-152 -22q-97 0 -168.5 22t-117 69t-66.5 119q-18 60 -18 142q0 16 1 32z" />
<glyph unicode="T" horiz-adv-x="731" d="M14 878v166h703v-166h-254v-878h-191v878h-258z" />
<glyph unicode="U" horiz-adv-x="897" d="M86 278v766h188v-745q0 -16 2 -33.5t9 -34.5t18.5 -32t31 -26.5t47.5 -18t66 -6.5q40 0 68.5 6.5t48 18t31.5 26.5t18.5 32t8.5 35q1 17 1 33v745h187v-766q0 -74 -26.5 -129t-74.5 -92t-114 -55q-68 -18 -148 -18t-147 18t-114.5 55t-74 92t-26.5 129z" />
<glyph unicode="V" horiz-adv-x="823" d="M0 1044h200l208 -768l208 768h205l-313 -1044h-196z" />
<glyph unicode="W" horiz-adv-x="1235" d="M0 1044h207l149 -682l160 682h205l147 -690l162 690h205l-271 -1044h-204l-146 664l-160 -664h-204z" />
<glyph unicode="X" horiz-adv-x="860" d="M-2 0l326 536l-318 508h224l200 -344l196 344h224l-314 -504l322 -540h-230l-202 370l-205 -370h-223z" />
<glyph unicode="Y" horiz-adv-x="823" d="M0 1044h207l205 -452l204 452h208l-318 -640v-404h-188v404z" />
<glyph unicode="Z" horiz-adv-x="794" d="M39 0v133l485 745h-471v166h693v-134l-486 -746h494v-164h-715z" />
<glyph unicode="[" horiz-adv-x="489" d="M112 -326v1403h322v-149h-139v-1100h139v-154h-322z" />
<glyph unicode="\" horiz-adv-x="465" d="M-28 1067h151l371 -1127h-148z" />
<glyph unicode="]" horiz-adv-x="489" d="M56 -172h138v1100h-138v149h321v-1403h-321v154z" />
<glyph unicode="^" horiz-adv-x="731" d="M64 438l248 633h108l252 -633h-138l-168 424l-168 -424h-134z" />
<glyph unicode="_" horiz-adv-x="731" d="M0 -84h731v-119h-731v119z" />
<glyph unicode="`" horiz-adv-x="489" d="M30 1088h224l160 -242h-150z" />
<glyph unicode="a" horiz-adv-x="649" d="M30 226q0 8 1 22.5t5 33t12 39.5t22.5 41t36 37.5t53.5 30.5q50 18 88 33t66 27q32 13 56 22q11 6 13 17t2 26v4q0 44 -19.5 63t-62.5 19q-23 0 -38 -8t-23 -24t-11 -39.5t-1 -55.5l-170 8v16q0 62 14 106q16 50 49 82t83 46t116 14q48 0 83 -9t61 -23.5t42.5 -34 t27 -39.5t15.5 -40t7 -36t1.5 -27t-0.5 -14v-395q0 -10 1 -19q2 -9 8 -16q3 -3 9.5 -4t15.5 -0.5t18 2l15 2.5v-123l-46 -10q-34 -2 -60 1.5t-45 13t-32.5 25.5t-22.5 38q-34 -46 -77 -69t-85 -23q-64 0 -107.5 16t-70 47t-38.5 76t-12 101zM217 223q0 -20 4 -36.5 t12.5 -27.5t21.5 -17.5t31 -6.5q12 0 27 4.5t29 17.5t23.5 35t9.5 58v120l-113 -48q-13 -6 -21.5 -17.5t-13.5 -25t-7.5 -28.5t-2.5 -28z" />
<glyph unicode="b" horiz-adv-x="729" d="M92 -6v1050h184v-334q26 39 63 60.5t77 21.5q50 0 88 -13.5t67 -38.5t49 -59.5t32.5 -77t18 -91t5.5 -100.5t-3.5 -104.5t-13 -100t-27.5 -87.5t-46 -69.5t-68.5 -46t-95.5 -16.5q-50 0 -89 24t-65 66v-84h-176zM270 372q0 -23 1 -48.5t5 -51.5t11 -49.5t19.5 -41.5 t31 -28.5t43.5 -10.5q56 0 81.5 66t25.5 196q0 21 -1.5 46.5t-6 52.5t-11.5 52t-19 44.5t-29.5 31.5t-41.5 12q-28 0 -46.5 -13.5t-30.5 -35.5t-18.5 -50t-9.5 -58t-3.5 -60t-0.5 -54z" />
<glyph unicode="c" horiz-adv-x="649" d="M47 377q0 48 3.5 96.5t14.5 94.5t31.5 85.5t53 69t79.5 46.5t111 17t113.5 -24t83 -65.5t50.5 -96.5q17 -54 17 -116h-174q-1 28 -6.5 56t-17 50.5t-29 36.5t-43.5 14t-44 -12.5t-29 -34t-16.5 -50t-8 -60t-2.5 -64.5v-64q0 -42 4 -81t15 -70.5t31 -50.5t52 -19 q30 0 48.5 15.5t29 41.5t15.5 59t7 67h176q-3 -63 -17.5 -123t-45.5 -106.5t-80 -74.5t-119 -28q-65 0 -112.5 15t-81.5 41.5t-55 63t-33 80.5t-16.5 92t-4.5 99z" />
<glyph unicode="d" horiz-adv-x="729" d="M53 412q0 52 5.5 100.5t17.5 91t32 77t49 59.5t68 38.5t89 13.5q40 0 76 -21t62 -61v334h185v-1050h-176v84q-26 -42 -65.5 -66t-88.5 -24q-55 0 -95.5 16.5t-69 46t-45.5 69.5t-27 87.5t-13.5 99t-3.5 105.5zM242 404q0 -129 25 -195.5t81 -66.5q26 0 44 10.5t30 28.5 t19.5 41.5t11.5 49.5t5 51.5t1 48.5q0 24 -0.5 54t-3.5 60t-9 58t-18 50t-31 35.5t-47 13.5q-24 0 -41 -12t-29.5 -31.5t-20 -44.5t-11.5 -52t-5 -53t-1 -46z" />
<glyph unicode="e" horiz-adv-x="649" d="M47 383q0 46 3.5 93.5t14.5 92.5t30.5 84t50.5 68t75 46q45 17 105 17q64 0 109 -19t75 -52t48 -76t26.5 -91t11 -99t2.5 -97h-364v-45t3 -48t9 -46t17 -39t27 -27t40 -10q26 0 43 13t26.5 34.5t12.5 47.5q4 26 2 54h178v-20q0 -52 -12 -98q-16 -54 -50 -94.5t-85 -63 t-117 -22.5q-62 0 -113.5 19t-89 65t-58 122t-20.5 191zM236 479h178q0 28 -3 57t-12.5 52.5t-26.5 39.5q-16 15 -44 15q-26 0 -44 -16t-28 -40.5t-15 -53.5t-5 -54z" />
<glyph unicode="f" horiz-adv-x="407" d="M12 624v150h90v50q0 17 1 37.5t5 41.5t11 41.5t21 36.5q52 65 176 65h21h19t20 -1t24 -3v-147q-34 2 -57 1.5t-36 -5.5t-19 -17t-6 -32v-68h111v-150h-111v-624h-176v624h-94z" />
<glyph unicode="g" horiz-adv-x="731" d="M53 391q0 41 4 86t15 89t29.5 83.5t48.5 69.5t72 47q42 18 98 18q44 0 79 -20t60 -56v66h180v-714q0 -73 -15 -137t-49 -111.5t-89.5 -75t-135.5 -27.5q-50 0 -97 13.5t-84 42.5t-63 73q-24 44 -32 104h180q3 -23 11.5 -39.5t21.5 -27.5t28.5 -17t32.5 -6q26 0 44.5 9 t30.5 24t18.5 34t9.5 40t4 41.5t1 38.5q-14 -14 -28 -24.5t-29.5 -17.5t-33 -10t-37.5 -3q-60 0 -110.5 20t-87 67t-57 125t-20.5 195zM238 385q0 -58 5 -104.5t17 -79.5t31 -50.5t49 -17.5q28 0 48 12.5t33.5 34.5t21 49.5t11.5 57.5t4.5 60.5t0.5 56.5q0 47 -5.5 89.5 t-18.5 74.5t-34.5 51.5t-54.5 19.5q-25 0 -42.5 -12.5t-29.5 -33.5t-19.5 -48t-11 -55t-4.5 -55.5t-1 -49.5z" />
<glyph unicode="h" horiz-adv-x="735" d="M92 0v1044h180v-358q16 23 35 41.5t41 31.5t46 20t50 7q98 0 150.5 -56t52.5 -165v-565h-182v534q0 23 -5.5 42.5t-16 34t-26 22.5t-36.5 8q-22 0 -41.5 -6.5t-34 -20.5t-23.5 -35q-10 -21 -10 -51l2 -528h-182z" />
<glyph unicode="i" horiz-adv-x="338" d="M80 0v774h178v-774h-178zM80 856v188h178v-188h-178z" />
<glyph unicode="j" horiz-adv-x="340" d="M-4 -129q9 -2 20.5 -2.5t22.5 0.5t20 3t13 7q8 10 10 26.5t2 45.5v823h176v-813q0 -72 -12 -119.5t-42 -76.5t-81 -40t-129 -11v157zM84 856v188h176v-188h-176z" />
<glyph unicode="k" horiz-adv-x="682" d="M92 0v1044h180v-532l222 262h202l-260 -309l252 -465h-188l-184 326l-44 -48v-278h-180z" />
<glyph unicode="l" horiz-adv-x="358" d="M90 0v1044h178v-1044h-178z" />
<glyph unicode="m" horiz-adv-x="1163" d="M90 0v774h174v-74q17 22 37 38t41.5 26t43.5 15t44 5q66 0 114 -27t82 -75q21 23 44 42t49.5 32.5t56.5 20.5t64 7q53 0 96 -13t73.5 -41.5t47 -74t16.5 -108.5v-547h-178v547q0 22 -4.5 38.5t-15.5 28.5t-28.5 18.5t-43.5 6.5q-62 0 -97 -35q-34 -34 -34 -104v-500h-176 v547q0 20 -5 37.5t-16 29.5t-28 18.5t-41 6.5q-32 0 -57 -11t-43 -31.5t-28 -48.5t-10 -62v-486h-178z" />
<glyph unicode="n" horiz-adv-x="737" d="M92 0v774h180v-88q16 23 35 41.5t41 31.5t46 20t50 7q98 0 150.5 -56t52.5 -165v-565h-182v534q0 23 -5.5 42.5t-16 34t-26 22.5t-36.5 8q-22 0 -41.5 -6.5t-34 -20.5t-23.5 -35q-10 -21 -10 -51l2 -528h-182z" />
<glyph unicode="o" horiz-adv-x="731" d="M60 385q0 94 17 168.5t54.5 126.5t95 79t139.5 27q80 0 139 -27.5t96 -80t55 -126.5t18 -167q0 -108 -22 -183.5t-62.5 -123.5t-97 -70t-126.5 -22q-68 0 -124 21.5t-96.5 69.5t-63 124t-22.5 184zM246 385q0 -59 7 -105.5t22 -78.5t37.5 -49t53.5 -17q30 0 53 16.5 t38 48.5t23 78.5t8 106.5q0 62 -7 110t-22 80.5t-38 49t-57 16.5q-62 0 -90 -65t-28 -191z" />
<glyph unicode="p" horiz-adv-x="729" d="M92 -270v1044h176v-70q14 22 32 38t37.5 26t39 14t37.5 4q50 0 90 -16t71 -45t52 -68.5t35 -86t20 -98.5t6 -104t-6 -101t-20 -92t-35 -78.5t-51 -61t-69 -39.5t-89 -14q-45 0 -80 20q-36 22 -62 54v-326h-184zM254 402q0 -24 0.5 -54t4 -60t11 -58t21.5 -50t35.5 -35.5 t52.5 -13.5q28 0 48.5 12.5t34.5 32.5t22 46t12.5 53.5t6 54t1.5 47.5q0 129 -28.5 192.5t-94.5 63.5q-30 0 -50.5 -10.5t-35 -28.5t-23 -42t-12.5 -50t-5 -51.5t-1 -48.5z" />
<glyph unicode="q" horiz-adv-x="729" d="M41 368q0 52 6.5 104t20 98.5t35 86t51.5 68.5t70 45t90 16q40 0 78 -19t69 -61v68h176v-1044h-185v311q-13 -14 -28.5 -25.5t-32.5 -19t-35 -10.5q-16 -4 -32 -4q-74 0 -128 31t-88 84t-50.5 123t-16.5 148zM226 377q0 -21 1 -47.5t5.5 -54t13 -53.5t22.5 -46t34 -32.5 t48 -12.5q31 0 52.5 13.5t35.5 35.5t21.5 50t11 58t4 60t0.5 54q0 23 -1.5 48.5t-5.5 51.5t-12 50t-22 42t-35 28.5t-51 10.5q-66 0 -94 -63.5t-28 -192.5z" />
<glyph unicode="r" horiz-adv-x="485" d="M84 0v774h172v-78q18 24 39.5 41.5t49 28t61.5 13.5q12 1 25 1q26 0 55 -4v-164q-28 5 -53 5q-23 -1 -44 -5q-43 -8 -72 -31t-44 -57t-15 -76v-448h-174z" />
<glyph unicode="s" horiz-adv-x="649" d="M30 274h181v-13q0 -55 22 -89q25 -38 81 -37q48 0 74 22.5t26 65.5q0 22 -9 37t-25 26.5t-36 19.5q-21 10 -45 18q-28 10 -57.5 21t-57 25.5t-52 32t-42.5 41.5t-28.5 53.5t-10.5 67.5q0 52 18 93.5t51 69.5t79 43t102 15q64 0 114.5 -15.5t85.5 -48t53 -83.5t18 -121 h-183q1 13 1 24q0 44 -15 68q-19 30 -63 31q-16 0 -30.5 -4.5t-25 -13.5t-16.5 -23q-6 -12 -6 -30q0 -20 7.5 -34t21 -25t31.5 -19t38 -15q28 -10 58.5 -20.5t60 -24.5t55.5 -32t46 -41.5t32 -53t12 -67.5q0 -58 -19 -105t-55 -80t-88 -50t-120 -17q-69 0 -121.5 15 t-88.5 50t-54 90t-20 133z" />
<glyph unicode="t" horiz-adv-x="401" d="M4 626v148h96v211h176v-211h122v-148h-122v-456q0 -4 0.5 -8t2.5 -6.5t6.5 -4t11.5 -1.5h107v-150h-156q-31 0 -57.5 5t-46.5 20t-32 45t-12 80v476h-96z" />
<glyph unicode="u" horiz-adv-x="723" d="M90 223v551h180v-542q0 -16 3.5 -33.5t13 -31.5t25.5 -23t42 -9q17 0 34.5 7t31 21.5t22 35.5t8.5 51v524h181v-774h-181v72q-32 -40 -75 -63t-93 -23q-49 0 -85 16.5t-59.5 47.5t-35.5 74.5t-12 98.5z" />
<glyph unicode="v" horiz-adv-x="622" d="M0 774h184l119 -498l9 -48l8 48l118 498h184l-226 -774h-170z" />
<glyph unicode="w" horiz-adv-x="977" d="M6 774h184l115 -490l109 490h149l113 -490l112 490h185l-209 -774h-164l-112 463l-105 -463h-164z" />
<glyph unicode="x" horiz-adv-x="686" d="M-6 0l252 393l-246 381h194l148 -250l150 250h192l-246 -383l252 -391h-194l-154 250l-152 -250h-196z" />
<glyph unicode="y" horiz-adv-x="665" d="M0 774h184l146 -496l152 496h184l-238 -721q-16 -48 -32 -91q-6 -18 -13.5 -37t-14 -36t-13 -31.5t-11.5 -23.5q-18 -30 -40 -51t-48 -34t-57 -19t-66 -6q-24 0 -54.5 4t-58.5 12v158q36 -12 66 -19.5t49 -7.5q24 0 39.5 7.5t28 24t24 44t25.5 67.5z" />
<glyph unicode="z" horiz-adv-x="620" d="M30 0v116l349 515h-330v143h539v-120l-348 -508h350v-146h-560z" />
<glyph unicode="{" horiz-adv-x="401" d="M-10 444v33q24 2 45 9t36.5 20.5t25 34t9.5 51.5v272q0 66 22 108.5t60.5 65.5t92 30.5t117.5 4.5l6 -35q-34 -8 -57 -20t-35.5 -27.5t-17.5 -35t-5 -41.5v-286q0 -56 -19.5 -100t-62.5 -72q23 -16 39 -36t25 -44t13.5 -52t4.5 -58v-268q0 -23 5.5 -42.5t18.5 -35.5 t36 -30t59 -25l-10 -31q-88 -2 -144.5 10.5t-89 41t-45.5 74.5t-13 114v240q0 29 -6.5 50.5t-21 37.5t-36.5 26t-52 16z" />
<glyph unicode="|" horiz-adv-x="366" d="M116 0v1044h134v-1044h-134z" />
<glyph unicode="}" horiz-adv-x="401" d="M-6 -135q35 12 58 25.5t36.5 29.5t18.5 35.5t5 42.5v268q0 30 4.5 58t14 52t25.5 44t38 36q-44 28 -63 72t-19 100v286q0 23 -5 42t-17.5 34.5t-35 27.5t-56.5 20l6 35q64 2 117 -5t92 -30t61 -65q21 -43 21 -109v-272q0 -31 9.5 -51.5t25.5 -34t37 -20t45 -9.5v-33 q-31 -6 -53.5 -16t-36.5 -26t-20.5 -38t-6.5 -50v-240q0 -67 -12.5 -113.5t-45.5 -75t-89 -41t-144 -10.5z" />
<glyph unicode="~" horiz-adv-x="731" d="M37 293q17 34 36 68.5t43 61.5t53.5 45t66.5 18q28 0 55 -7.5t52 -18t47 -23.5t42.5 -23t38 -17.5t31.5 -7.5q16 0 32 12.5t31 33t28 45t23 48.5l80 -112q-16 -33 -35 -65.5t-43.5 -57.5t-54 -40t-63.5 -15q-24 0 -47.5 7t-45 17.5t-42.5 23t-42.5 23.5t-43 18t-43.5 7 q-18 0 -35 -13t-31 -34t-27 -47t-24 -52z" />
<glyph unicode="&#xa2;" horiz-adv-x="731" d="M64 512q0 43 3.5 87.5t13.5 86.5t27.5 80t44.5 68.5t65 52t89 31.5v126h117v-120q54 -7 95 -33.5t68 -65.5t40.5 -89t13.5 -103h-153q-1 23 -4 48t-10 47t-19 38t-31 22v-530q22 9 35 28.5t20 44.5t9 53q4 28 6 56h153q-2 -57 -14.5 -111.5t-38 -98.5t-66.5 -74 q-42 -32 -104 -40v-116h-117v121q-49 8 -86 27.5t-64 48.5t-45 64.5t-29 76t-15 85t-4 89.5zM226 492q0 -28 3 -61t12.5 -65t25 -58t40.5 -40v502q-18 -13 -31 -33.5t-22 -44.5t-14.5 -51.5t-8.5 -54t-4 -51t-1 -43.5z" />
<glyph unicode="&#xa3;" horiz-adv-x="776" d="M26 98q38 28 71.5 57t58 60t38 65t13.5 72q0 23 -3.5 43.5t-15.5 44.5h-149v121h84q-22 45 -35 91q-14 46 -14 98q0 73 26 128t71 92t107 55.5t134 18.5q68 0 123 -17t96 -51t66 -83t32 -113q1 -18 0 -35t-1 -31q-2 -16 -3 -32h-180q0 9 1 21.5t0.5 25.5t-1.5 27 q-1 12 -5 24q-12 48 -47 74t-91 26q-36 0 -62 -10t-43.5 -29t-26.5 -45q-8 -26 -8 -58q0 -21 5 -43.5t14 -44.5t20 -45t23 -44h244v-121h-189q4 -16 6 -32.5t2 -30.5q0 -58 -18.5 -104.5t-52.5 -88.5q23 2 46.5 1.5t45.5 -5.5q37 -8 66 -17t46 -11q20 -6 40.5 -4t42.5 10 t45.5 21t47.5 30l66 -151q-34 -23 -61 -37.5t-51 -22.5t-49 -11t-56 -3t-61.5 7.5t-61 17t-62.5 17t-65 7.5q-22 0 -42.5 -4.5t-41 -12.5t-41.5 -20t-45 -26z" />
<glyph unicode="&#xa5;" horiz-adv-x="829" d="M-18 1044h206l226 -452l225 452h207l-244 -460h110v-130h-178l-26 -50v-38h204v-132h-204v-234h-188v234h-206v132h206v38l-27 50h-179v130h109z" />
<glyph unicode="&#xa9;" horiz-adv-x="1112" d="M51 496q0 69 18.5 133t51 120t79 102.5t102.5 79t120 51t133 18.5t133 -18.5t120 -51t102.5 -79t79 -102.5t51 -120.5t18.5 -132.5q0 -69 -18.5 -133.5t-51 -120.5t-79 -102t-102.5 -79t-120 -51t-133 -18t-133 18t-120 51t-102.5 79t-79 102t-51 120.5t-18.5 133.5z M174 496q0 -52 13.5 -101t38 -92t59.5 -77.5t77.5 -59t91 -38.5t101.5 -14q52 0 101 14t91.5 38.5t77.5 59t59.5 77.5t38 91t13.5 102q0 52 -13.5 101t-38 91t-59.5 77t-77.5 60t-91 38t-101.5 13q-52 0 -101 -13t-91.5 -38t-77.5 -60t-59.5 -77t-38 -91t-13.5 -101z M316 496q0 59 16 110t46 89t74.5 59.5t100.5 21.5q38 0 73.5 -15t63.5 -44.5t48 -72t28 -95.5h-114q-10 54 -37 84.5t-62 30.5q-30 0 -53 -14t-38.5 -37t-23.5 -53t-8 -64q0 -33 8 -64.5t24 -55.5t40 -38t55 -14q16 0 31.5 8t27.5 23t20 36t11 47h115q-6 -52 -24.5 -94 t-46.5 -71.5t-62.5 -45.5t-71.5 -16q-56 0 -100.5 22t-76 60.5t-48 90.5t-16.5 112z" />
<glyph unicode="&#xab;" horiz-adv-x="731" d="M102 381v107l266 254v-179l-134 -131l134 -131v-180zM364 381v107l267 254v-179l-135 -131l135 -131v-180z" />
<glyph unicode="&#xad;" horiz-adv-x="585" d="M82 282v142h422v-142h-422z" />
<glyph unicode="&#xae;" horiz-adv-x="1110" d="M51 496q0 69 18.5 133t51 120t79 102.5t102.5 79t120 51t133 18.5t133 -18.5t120 -51t102.5 -79t79 -102.5t51 -120.5t18.5 -132.5q0 -69 -18.5 -133.5t-51 -120.5t-79 -102t-102.5 -79t-120 -51t-133 -18t-133 18t-120 51t-102.5 79t-79 102t-51 120.5t-18.5 133.5z M174 496q0 -52 13.5 -101t38 -92t59.5 -77.5t77.5 -59t91 -38.5t101.5 -14q52 0 101 14t91.5 38.5t77.5 59t59.5 77.5t38 91t13.5 102q0 52 -13.5 101t-38 91t-59.5 77t-77.5 60t-91 38t-101.5 13q-52 0 -101 -13t-91.5 -38t-77.5 -60t-59.5 -77t-38 -91t-13.5 -101z M375 223v543h221q35 0 67.5 -9t57.5 -27.5t40 -48.5q15 -31 15 -73q0 -34 -9 -60t-24 -45t-36 -32t-43 -19l128 -229h-132l-124 223h-46v-223h-115zM490 551h61q19 0 39 0.5t36 6t27 18t11 34.5q0 18 -7 28.5t-19 16t-26 7.5t-30 2h-92v-113z" />
<glyph unicode="&#xbb;" horiz-adv-x="731" d="M102 121v180l136 131l-136 131v179l266 -258v-107zM364 121v180l136 131l-136 131v179l267 -258v-107z" />
<glyph unicode="&#xbc;" horiz-adv-x="1147" d="M96 788v105q35 0 62 5.5t46.5 18t31.5 33t18 52.5h106v-621h-126v436q-30 -17 -64 -23t-74 -6zM232 0l634 1002h140l-636 -1002h-138zM688 137v101l254 382h110v-372h54v-111h-54v-137h-124v137h-240zM813 248h115v170z" />
<glyph unicode="&#xbd;" horiz-adv-x="1147" d="M96 788v105q35 0 62 5.5t46.5 18t31.5 33t18 52.5h106v-621h-126v436q-30 -17 -64 -23t-74 -6zM196 0l640 1002h137l-639 -1002h-138zM708 0q2 37 5 68.5t12 60t27 56.5q18 29 51 59l105 90q24 18 37 42t13 52q0 14 -2.5 26t-9 21t-18.5 14t-29 5q-20 0 -32.5 -11.5 t-18 -29t-6.5 -39.5q-2 -24 0 -46h-127v60q0 39 13.5 71.5t38.5 55.5t60 36t76 13q47 0 82 -13t59 -36.5t36 -56t12 -70.5q0 -33 -8 -59.5t-22.5 -49.5t-35.5 -43q-20 -18 -45 -38l-101 -86q-9 -6 -15 -16q-6 -12 -9 -24h242v-112h-390z" />
<glyph unicode="&#xbe;" horiz-adv-x="1147" d="M68 578h130q-4 -18 -1 -36t11.5 -31t23 -21t34.5 -8q36 0 53 21t17 56q0 26 -4 44t-16.5 29t-36 15.5t-62.5 4.5v100h31q13 0 25.5 2t21.5 9t15 22t6 41q0 16 -2.5 27t-8 19t-15.5 12.5t-26 4.5q-19 0 -30.5 -6.5t-18 -17.5t-8.5 -26t-2 -32h-127q-1 40 9.5 75.5t33.5 62 t59 42t86 15.5q41 0 74.5 -12t58.5 -33t38 -52t13 -69q0 -40 -12 -71t-40 -55q32 -22 52 -58q19 -34 19 -78q0 -46 -12.5 -84t-37.5 -64t-63.5 -41t-91.5 -15q-56 0 -95 15t-62.5 42t-33 65t-5.5 86zM248 0l639 1002h139l-637 -1002h-141zM688 137v99l252 386h112v-374h54 v-111h-54v-137h-126v137h-238zM811 248h115v170z" />
<glyph unicode="&#xd7;" horiz-adv-x="807" d="M68 80l244 272l-244 276l102 93l234 -265l233 265l103 -93l-244 -276l244 -272l-105 -94l-231 262l-232 -262z" />
<glyph unicode="&#xf7;" horiz-adv-x="794" d="M82 282v142h630v-142h-630zM309 72q0 18 6.5 33t18.5 27t28 19t34 7t33 -7t27 -19t19 -27t7 -33t-7 -34t-19 -27.5t-28 -18.5q-14 -6 -32 -6t-34 6.5t-28 18t-18.5 27.5t-6.5 34zM309 635q0 18 6.5 33.5t18.5 27.5t28 18.5t34 6.5t33 -6.5t27 -18.5t19 -28t7 -33 q0 -18 -7 -33.5t-19 -27.5t-28 -18q-14 -7 -32 -7t-34 6.5t-28 18.5t-18.5 27.5t-6.5 33.5z" />
<glyph unicode="&#xe01;" horiz-adv-x="772" d="M22 666q29 58 67.5 101t84.5 71.5t98 42.5t109 14q59 0 115 -16.5t99.5 -49t70 -80t26.5 -108.5v-641h-182v624q0 54 -32 86t-97 32q-50 0 -88 -16q-37 -16 -59 -38q12 -14 20 -33t8 -49v-606h-182v578q0 12 -3 25t-10 25t-18 22t-27 16z" />
<glyph unicode="&#xe02;" horiz-adv-x="676" d="M14 731v153h256l74 -366l16 -137l17 135l75 368h189l-185 -884h-190l-156 731h-96z" />
<glyph unicode="&#xe03;" horiz-adv-x="717" d="M12 884h158q0 -14 3 -27t9 -23t14.5 -16.5t18.5 -6.5q9 0 17 6t15 16.5t10.5 23.5t4.5 27h158v-161q0 -32 -10 -57t-24.5 -46.5t-32 -41.5t-33.5 -41t-29 -45t-17 -54v-180q0 -54 24 -85q22 -31 66 -31t68 30t24 86v626h181v-648q0 -41 -11 -75.5t-30.5 -62t-45.5 -48.5 t-56.5 -34.5t-63.5 -20.5q-34 -7 -66 -7q-50 0 -98 15.5t-86.5 46.5t-62 77.5t-23.5 108.5v172q0 36 4 62.5t11 47t19 37.5t27 34t33 37q20 20 42 46q-11 -2 -20.5 -3t-19.5 -1q-12 0 -30.5 2t-39 10t-40.5 22.5t-36 38.5t-25 59.5t-7 83.5z" />
<glyph unicode="&#xe04;" horiz-adv-x="778" d="M80 0v641q0 60 23 107.5t64 80t98 49.5t124 17t124 -17t98 -49.5t64 -79.5t23 -108v-641h-180v614q0 28 -6.5 51t-22 40t-40 27t-60.5 10t-60.5 -9.5t-39.5 -26t-21 -40.5t-6 -52v-126q18 16 37 27t42 18t50 10t61 2v-168q-46 4 -81 -5.5t-59.5 -29t-37 -49t-12.5 -65.5 v-228h-182z" />
<glyph unicode="&#xe05;" horiz-adv-x="792" d="M80 0v641q0 49 17 91t48 74t75 53t100 30l76 -82q18 22 35 43.5t34 38.5q57 -8 103 -29.5t78 -53.5t49 -73.5t17 -91.5v-641h-182v631q0 29 -3 49t-19 35l-78 -89q-6 -7 -15 -10.5t-18 -4.5t-18 2t-15 9l-82 93q-14 -16 -17 -36.5t-3 -47.5v-143q18 16 37 27t42 18t50 10 t61 2v-168q-46 4 -81 -5.5t-59.5 -29t-37 -49t-12.5 -65.5v-228h-182z" />
<glyph unicode="&#xe06;" horiz-adv-x="778" d="M26 884h160q0 -14 3 -27t8 -23t13 -16.5t20 -6.5q9 0 16.5 5.5t13 15.5t9 24t3.5 28h164v-161q0 -28 -7 -51.5t-19 -44.5t-29 -40t-37 -38q-30 -30 -42.5 -55.5t-12.5 -53.5v-100q0 -32 7.5 -66.5t23.5 -63t42 -46.5t64 -18q28 0 45 6t27 19t14 32t4 45v636h182v-658 q0 -61 -17 -105.5t-48 -72.5t-75 -42t-97 -14q-30 0 -55.5 8t-47.5 21.5t-42 31t-38 35.5l2 -88h-174v408q0 30 1 51.5t5 38t9.5 30.5t15.5 27.5t24 28.5q13 14 33 34l50 54q-9 -3 -20.5 -3.5t-20.5 -0.5q-13 0 -32 2t-39 10t-40 22.5t-35.5 38.5t-24 59.5t-6.5 83.5z" />
<glyph unicode="&#xe07;" horiz-adv-x="624" d="M10 547h193l127 -385q4 -8 8 -12t12 -4t10 5t2 15v565h-90v153h273v-698q0 -40 -15.5 -76t-42.5 -62.5t-63 -42t-76 -15.5q-32 0 -62 9t-55 26t-44 40t-29 51z" />
<glyph unicode="&#xe08;" horiz-adv-x="674" d="M49 612q4 60 25.5 112t59.5 90t91.5 59.5t122.5 21.5q36 0 71 -6.5t68 -22.5t60.5 -41t46.5 -61t28 -85q8 -49 4 -111q-2 -26 -6 -54t-11.5 -61t-19 -74t-28.5 -95t-40.5 -124t-53.5 -160h-195l-114 389h-88v143h225l73 -284q17 54 28.5 94.5t20 75t14.5 66.5q5 32 11 69 q4 36 1.5 70t-14 60.5t-32.5 42.5t-51 16q-51 0 -80 -33q-28 -33 -36 -97h-181z" />
<glyph unicode="&#xe09;" horiz-adv-x="753" d="M68 616q0 70 25 122t68 86.5t98 51.5t113 17q59 0 114 -14.5t96.5 -44t66.5 -74.5q25 -44 25 -106v-654h-172v88q-42 -44 -86 -70q-42 -26 -96 -26q-53 0 -97.5 14t-76 42t-49 72t-17.5 106v292h180v-270q0 -26 4 -45t15 -32t29 -19t46 -6q38 0 64 17.5t42.5 45.5 t24 62.5t9.5 68.5v286q0 56 -28 85t-94 29q-32 0 -54 -8t-36 -24t-21.5 -39t-10.5 -53h-182z" />
<glyph unicode="&#xe0a;" horiz-adv-x="710" d="M33 708v162q63 14 104 16.5t57 2.5q86 0 131 -43.5t45 -122.5v-15q27 6 45 18t28.5 33.5t15 52t4.5 72.5h184q0 -44 -3 -79t-12.5 -64t-27.5 -52.5t-47 -43.5q28 -16 43.5 -36.5t22 -42.5t7.5 -44.5t1 -42.5v-243q0 -41 -11 -75.5t-30.5 -61.5t-45.5 -47t-56 -33t-63 -20 t-67 -7t-67 7t-64 20t-57 33t-45 47t-30 61t-11 76v194q0 44 3 73.5t11 52.5t23 43.5t39 45.5q10 11 19 21t16 19.5t11.5 17.5t4.5 14q0 14 -9.5 19.5t-23.5 5.5q-16 0 -35.5 -3t-39 -8t-38.5 -11t-32 -12zM266 258q0 -54 25 -83t67 -29t67 28t25 84v219q0 33 -9 54.5 t-27 34.5t-42 18.5t-54 7.5l-34 -47q-12 -22 -15 -43q-3 -22 -3 -48v-196z" />
<glyph unicode="&#xe0b;" horiz-adv-x="751" d="M26 884h160q0 -14 3 -27t8 -23t12 -16.5t17 -6.5q9 0 16.5 6.5t13.5 16.5t9 24q3 12 3 26h158v-138q0 -12 -3 -26t-7 -30q26 8 42.5 23t27 39t14.5 57t4 75h182q0 -44 -3 -82t-13 -70t-28 -59t-48 -47q30 -16 46 -36t23 -43t8 -45.5t1 -42.5v-223q0 -41 -11.5 -75.5 t-31 -61.5t-46 -47.5t-57 -34t-64.5 -20.5t-66 -7q-50 0 -99 15t-87 46t-61.5 77t-23.5 108v172q0 30 1 51t3.5 37.5t7.5 30t13 26.5t19 27t27 34q10 12 17 20.5t12 15t9 13.5t8 15q-10 -5 -23 -7.5t-21 -2.5q-13 0 -30.5 3t-36.5 11.5t-38 24t-33.5 39.5t-24 58t-9.5 80z M305 258q0 -54 24.5 -84t66.5 -30q43 0 68.5 29t25.5 85v198q0 34 -9 57t-25 36t-40 19t-54 8q-14 -22 -24.5 -40.5t-17.5 -34.5t-10.5 -30.5t-4.5 -30.5v-182z" />
<glyph unicode="&#xe0c;" horiz-adv-x="1179" d="M20 664q30 59 70 102t87 71.5t99 42t107 13.5q63 0 121 -16.5t102 -47.5t70 -76t26 -104v-295q0 -38 6 -65t15 -51q6 -14 17.5 -29t27 -28t33.5 -21q19 -8 37 -8q24 0 38 8.5t22 24t11 36.5t3 45v618h188v-652q0 -61 -18 -105.5t-49.5 -72.5t-73 -42t-89.5 -14 q-51 0 -92 23q-42 23 -80 65v-86h-182v622q0 60 -36 89t-97 29q-48 0 -85 -15q-36 -15 -60 -39q17 -17 23.5 -36.5t6.5 -49.5v-452h82v-148h-268v588q0 12 -3 24t-10.5 22t-19 18t-29.5 12z" />
<glyph unicode="&#xe0d;" horiz-adv-x="1186" d="M22 666q30 58 70 101t87 71.5t99 42.5t107 14q63 0 121 -16.5t102 -48t70 -77t26 -104.5v-383q0 -24 6 -45t17 -36.5t29 -24t42 -8.5q30 0 53 12t38 32.5t23 46.5t8 54v587h186v-854q0 -69 -15.5 -129.5t-51 -106.5t-93.5 -72.5t-143 -26.5q-52 0 -101.5 14.5t-88.5 45.5 t-66 78t-35 111h180q4 -26 15 -43.5t26 -29t32.5 -17.5t35.5 -6q38 0 63 13t39.5 32t20.5 43t6 48v67q-31 -26 -68.5 -39.5t-83.5 -13.5q-30 0 -60.5 6t-59.5 18.5t-54.5 31.5t-44.5 45t-30 59q-11 34 -11 74v390q0 62 -36 91t-97 29q-48 0 -86 -15q-37 -15 -61 -39 q14 -16 22 -37t8 -49v-454h82v-148h-268v592q0 24 -13 44t-47 30z" />
<glyph unicode="&#xe0e;" horiz-adv-x="790" d="M18 0v148h68v444q0 23 -16 41.5t-48 30.5q29 59 69.5 102t87.5 71.5t100.5 42t109.5 13.5q39 0 78 -6.5t74 -20.5t66 -34t53.5 -47.5t35 -61t12.5 -74.5v-935h-159q-8 14 -20.5 27t-31 24t-43 17.5t-56.5 6.5t-60 -8t-53 -22.5t-49 -34.5t-46 -44v168q16 14 38 30 t48.5 29t57.5 21t64 8q38 0 72 -8q32 -9 56 -18v712q0 54 -37.5 86t-105.5 32q-50 0 -87.5 -15t-59.5 -39q14 -16 22 -37.5t8 -52.5v-596h-248z" />
<glyph unicode="&#xe0f;" horiz-adv-x="790" d="M18 0v148h68v444q0 23 -16 41.5t-48 30.5q29 59 69.5 102t87.5 71.5t100.5 42t109.5 13.5q39 0 78 -6.5t74 -20.5t66 -34t53.5 -47.5t35 -61t12.5 -74.5v-935h-163q-2 14 -6.5 28t-12 25.5t-18 18.5t-22.5 7t-21 -6.5t-16 -17.5t-10 -26t-3 -29h-139q0 16 -2.5 31 t-7.5 26.5t-14 18.5t-23 7q-12 0 -20.5 -8.5t-14.5 -20.5t-9 -27t-3 -27h-160q0 58 15.5 101t42.5 71t61 41q36 13 74 13t72 -15.5t54 -43.5q23 28 46.5 40.5t54.5 12.5q20 0 35.5 -5t27.5 -13v706q0 54 -37.5 86t-105.5 32q-50 0 -87.5 -15t-59.5 -39q14 -16 22 -37.5 t8 -52.5v-596h-248z" />
<glyph unicode="&#xe10;" horiz-adv-x="702" d="M45 -318q-2 43 4.5 75.5t18 55.5t27 38t32.5 23t33 12t30 4q31 0 51.5 -13t34.5 -33q16 23 34 34.5t36 11.5q17 0 33.5 -10t30.5 -26v82h153v-254h-151q0 34 -10.5 51t-24.5 17q-9 0 -15 -6t-9.5 -15t-5 -21t-1.5 -26h-104q0 12 -2 24.5t-5.5 22t-9 15.5t-14.5 6 q-8 0 -14.5 -5t-10.5 -14.5t-6 -22t-2 -26.5h-133zM49 612q4 60 25.5 112t59.5 90t91.5 59.5t122.5 21.5q24 0 48 -3q22 -4 46 -10q17 12 27 30t10 34h191q-2 -22 -9 -45t-18 -45t-27 -41q-14 -19 -34 -33q25 -38 37.5 -91t6.5 -123q-2 -26 -6 -54t-11.5 -61t-19 -74 t-28.5 -95t-40.5 -124t-53.5 -160h-195l-114 389h-88v143h225l73 -284q17 54 28.5 94.5t20 75t14.5 66.5q5 32 11 69q4 36 1 70t-15.5 60.5t-34 42.5t-51.5 16q-51 0 -78 -33q-26 -33 -34 -97h-181z" />
<glyph unicode="&#xe11;" horiz-adv-x="809" d="M30 884h156q0 -14 3 -27t9 -23t14 -16.5t18 -6.5t17.5 5.5t13 15.5t8.5 24t3 28h160v-52q36 32 76 48.5t86 16.5q32 0 57 -8.5t42 -29t25.5 -53t8.5 -81.5v-725h-182v712q0 6 -3.5 12.5t-9.5 6.5q-14 0 -32 -15.5t-38 -40t-41 -56t-40 -62.5t-35 -60t-24 -49 q-8 -18 -13 -33t-6.5 -29t-1.5 -27v-25v-334h-180v314q0 19 0.5 37.5t3.5 36.5t7 37q6 19 14 38q7 18 19 41.5t29 51.5t37.5 60t44.5 68q-7 -4 -16.5 -7t-19 -5t-18.5 -3t-15 -1q-12 0 -30.5 2t-39.5 10t-41 23t-35 39t-24 59t-7 83z" />
<glyph unicode="&#xe12;" horiz-adv-x="1247" d="M80 0v641q0 49 19.5 90.5t54 73.5t81.5 53.5t103 30.5l90 -82l86 82q58 -8 107 -29.5t83.5 -53.5t54 -73.5t19.5 -91.5v-287q0 -38 6 -66t14 -52q6 -13 17 -28.5t26 -28.5t33 -21t36 -8q23 0 37.5 8.5t22.5 24t11.5 36.5t3.5 47v618h183v-652q0 -61 -17 -105.5t-47 -73.5 t-70.5 -43t-87.5 -14q-51 0 -92.5 24t-79.5 66v-86h-178v622q0 30 -9 54t-26 39l-96 -84q-8 -6 -17 -9.5t-19.5 -3.5t-20 3t-17.5 10l-96 81q-18 -17 -25.5 -39.5t-7.5 -50.5v-358l104 140h-69v134h256v-122l-307 -416h-166z" />
<glyph unicode="&#xe13;" horiz-adv-x="1177" d="M24 664q30 59 69.5 102t86 71.5t98.5 42t107 13.5q63 0 121 -16.5t102 -48t70 -77t26 -104.5v-381q0 -24 4 -45.5t14 -37t26 -24.5t40 -9q16 0 32 7.5t30.5 19.5t25.5 27q12 16 19 30q10 23 15.5 52.5t5.5 67.5v530h182v-884h-180v86q-40 -44 -81 -67t-87 -23 q-48 0 -90 14t-72.5 43t-48 73t-17.5 106v396q0 27 -11 48t-30 35t-45 21.5t-57 7.5q-48 0 -85.5 -15t-59.5 -39q12 -17 21 -36.5t9 -47.5v-454h86v-148h-268v586q0 12 -3 23.5t-10 22t-18 18.5q-11 10 -27 14z" />
<glyph unicode="&#xe14;" horiz-adv-x="835" d="M82 0v618q0 62 26 113t71.5 88t106 56.5t130.5 19.5t131.5 -19.5t108 -56.5t73.5 -88t27 -113v-618h-182v420l-330 -420h-162zM264 260l117 148h-72v128h265v74q0 28 -10 52t-30 41.5t-50 28t-68 10.5t-67 -10t-48 -27.5t-28 -41.5q-9 -25 -9 -53v-350z" />
<glyph unicode="&#xe15;" horiz-adv-x="835" d="M82 0v649q0 50 18.5 91t51.5 72.5t78.5 52.5t99.5 30l88 -80l80 80q56 -8 103 -28.5t81.5 -52.5t54 -73.5t19.5 -91.5v-649h-182v420l-330 -420h-162zM262 260l119 148h-72v128h265v99q0 58 -38 92l-86 -84q-14 -14 -33 -14.5t-34 14.5l-84 82q-20 -17 -28.5 -40 t-8.5 -50v-375z" />
<glyph unicode="&#xe16;" horiz-adv-x="772" d="M20 666q29 58 67.5 101t84.5 71.5t98 42.5t109 14q68 0 125.5 -17.5t99.5 -51.5t65 -85t23 -119v-622h-182v622q0 27 -10 49.5t-28 37.5t-44 24t-58 9q-50 0 -86 -16q-34 -16 -56 -38q16 -14 24 -35t8 -47v-460h80v-146h-262v584q0 12 -3 24t-10 23t-18 20t-27 15z" />
<glyph unicode="&#xe17;" horiz-adv-x="772" d="M80 0v884h180v-96q37 52 87 79.5t112 27.5q52 0 95 -14t73.5 -43t47.5 -73.5t17 -104.5v-660h-182v620q0 24 -5 46.5t-18 39t-36 26.5t-58 10q-34 0 -58.5 -13t-40.5 -35.5t-24 -54t-8 -69.5v-570h-182z" />
<glyph unicode="&#xe18;" horiz-adv-x="737" d="M76 676q0 48 19 88t54 69t85.5 45.5t113.5 16.5q68 0 123 -16t93 -48.5t60 -82.5t25 -117h-182q-4 54 -35 83.5t-84 29.5q-48 0 -69 -14t-21 -42q0 -18 8.5 -31t26 -24t44.5 -22t65 -23q46 -14 82.5 -28t65 -29.5t49 -34t33.5 -42t19.5 -53.5t6.5 -69v-100 q0 -61 -24.5 -105.5t-64.5 -74.5t-92.5 -44t-108.5 -14t-108 14t-92 44t-64 74t-24 106v218h182v-190q0 -54 25 -83t81 -29q57 0 82 28.5t25 83.5v66q0 30 -14.5 50.5t-36 35t-48.5 24.5q-26 8 -50 16q-53 16 -98.5 35t-79.5 44.5t-53 60.5t-19 84z" />
<glyph unicode="&#xe19;" horiz-adv-x="772" d="M80 226v658h182v-620q0 -24 5 -46t18 -39t36 -26t58 -9q34 0 58.5 12t40.5 35t24 55q7 32 8 70v568h182v-884h-180v96q-37 -53 -86.5 -79.5t-111.5 -26.5q-52 0 -95.5 14t-74 43t-47.5 73t-17 106z" />
<glyph unicode="&#xe1a;" horiz-adv-x="772" d="M80 238v646h182v-630q0 -54 33 -81t92 -27q58 0 90.5 26t32.5 82v630h182v-646q0 -41 -12 -75.5t-34 -61.5t-51 -47.5t-63 -34t-71 -20.5t-74 -7t-74 7t-71 20.5t-64 34t-51.5 47.5t-34 61t-12.5 76z" />
<glyph unicode="&#xe1b;" horiz-adv-x="772" d="M80 238v646h182v-630q0 -54 33 -81t92 -27q58 0 90.5 26t32.5 82v958h182v-974q0 -41 -12 -75.5t-34 -61.5t-51 -47.5t-63 -34t-71 -20.5t-74 -7t-74 7t-71 20.5t-64 34t-51.5 47.5t-34 61t-12.5 76z" />
<glyph unicode="&#xe1c;" horiz-adv-x="841" d="M80 223v661h264v-153h-82v-483q0 -27 1 -46.5t5 -31.5t12 -18t21 -6q12 0 19.5 5t11.5 16t6 30t2 47v276h164v-276q0 -29 1.5 -48.5t5.5 -30.5t11.5 -15t19.5 -4q13 0 21 6t12 18t5.5 31.5t1.5 46.5v636h182v-661q0 -60 -14 -103.5t-39 -71.5t-61 -42t-78 -14 q-50 0 -88 18t-62 50q-24 -32 -59 -50t-85 -18q-44 0 -81 14t-63 42t-40 71.5t-14 103.5z" />
<glyph unicode="&#xe1d;" horiz-adv-x="841" d="M80 223v661h264v-153h-82v-483q0 -27 1.5 -46.5t6 -31.5t12 -18t19.5 -6q10 0 17.5 5t12.5 16t7 30t2 47v276h164v-276q0 -29 2 -48.5t6.5 -30.5t12 -15t17.5 -4q12 0 20 6t12 18t6 31.5t2 46.5v964h182v-989q0 -60 -14 -103.5t-39 -71.5t-61 -42t-78 -14q-50 0 -88 18 t-62 50q-24 -32 -59 -50t-85 -18q-44 0 -81 14t-63 42t-40 71.5t-14 103.5z" />
<glyph unicode="&#xe1e;" horiz-adv-x="973" d="M30 884h193l80 -470l113 470h145l111 -470l80 470h192l-162 -884h-154l-140 549l-142 -549h-154z" />
<glyph unicode="&#xe1f;" horiz-adv-x="973" d="M30 884h193l80 -470l113 470h145l111 -470l139 796h193l-222 -1210h-154l-140 551l-142 -551h-154z" />
<glyph unicode="&#xe20;" horiz-adv-x="770" d="M18 0v146h68v440q0 12 -3.5 24t-11 23t-18.5 19q-11 10 -27 14q29 58 67 101t82.5 71.5t96 42.5t107.5 14q40 0 78.5 -6.5t73 -20.5t64 -34.5t50.5 -48t33 -61.5t12 -75v-649h-182v622q0 27 -9 49.5t-26 37.5t-42 24t-59 9q-49 0 -80.5 -14t-57.5 -40q16 -16 25 -34 t9 -46v-608h-250z" />
<glyph unicode="&#xe21;" horiz-adv-x="772" d="M80 0v884h182v-568q0 -38 8 -70t24 -55t40 -35t59 -12q36 0 58.5 9t35.5 26t18 39t5 46v620h182v-658q0 -61 -17 -105.5t-47.5 -73.5t-73.5 -43t-95 -14q-62 0 -112 27t-87 79v-96h-180z" />
<glyph unicode="&#xe22;" horiz-adv-x="753" d="M56 278q0 27 3 54.5t12.5 53.5t27 50t47.5 46q-26 17 -43 38.5t-27 45.5t-14 49.5t-4 48.5q0 42 10.5 75t29 57.5t42.5 41t51 27.5t55 15t53 4h109v-153h-72q-12 0 -28 -2t-31.5 -10t-26 -23.5t-10.5 -41.5q0 -30 8 -49.5t22.5 -31t34 -16.5t41.5 -6h64v-139h-62 q-24 0 -44.5 -6t-35 -22t-22.5 -43t-8 -71q0 -30 6.5 -53t22 -40t41.5 -26q24 -9 62 -9t62 10t37 28t18 42t5 54v608h182v-636q0 -61 -20 -109.5t-58 -81.5t-95 -51t-131 -18q-69 0 -126.5 19.5t-99.5 57t-65 91.5t-23 122z" />
<glyph unicode="&#xe23;" horiz-adv-x="626" d="M37 286h184q-2 -24 1.5 -49t14.5 -46t30 -34t51 -13q41 0 63.5 27t22.5 87q0 33 -15 56t-37.5 39.5t-49 29.5t-50.5 25q-46 23 -83.5 44.5t-64.5 49.5t-42 66t-15 92q0 56 21.5 99.5t57 74t82 46t97.5 15.5q133 0 198 -69q65 -70 65 -210h-183q0 60 -18.5 93t-63.5 33 q-13 0 -26 -5t-23 -14t-16 -23t-6 -34q0 -28 14 -49t34.5 -36t44 -26t43.5 -21q48 -24 88 -46.5t69 -52t45 -69.5t16 -98q0 -63 -17 -114.5t-51.5 -87.5t-87.5 -56t-125 -20q-60 0 -111.5 17.5t-89 54t-56 92.5t-11.5 132z" />
<glyph unicode="&#xe24;" horiz-adv-x="772" d="M20 666q29 58 67.5 101t84.5 71.5t98 42.5t109 14q68 0 125.5 -17.5t99.5 -51.5t65 -85t23 -119v-908h-182v908q0 27 -10 49.5t-28 37.5t-44 24t-58 9q-50 0 -86 -16q-34 -16 -56 -38q16 -14 24 -35t8 -47v-460h80v-146h-262v584q0 12 -3 24t-10 23t-18 20t-27 15z" />
<glyph unicode="&#xe25;" horiz-adv-x="753" d="M43 254q0 9 1 25t5.5 35.5t12.5 41.5t24 44t39 40.5t57 32.5q12 5 37.5 13t56.5 17.5t64.5 20t62 20t49 18t25.5 14.5q6 4 8.5 10t4 15t2 18.5t0.5 19.5q0 29 -7 48.5t-21 31t-35 16.5t-50 5q-34 0 -58 -10t-40 -28t-24.5 -44t-10.5 -60h-182q3 78 29.5 133.5t70.5 91.5 t102 53t125 17q63 0 108.5 -12.5t77 -33.5t50.5 -47t29.5 -54t14 -55.5t3.5 -49.5v-641h-182v430q-24 -16 -51 -25t-54.5 -17t-55 -17t-55.5 -21q-13 -6 -22.5 -16t-15.5 -23t-9 -28t-3 -31q0 -22 6.5 -41t20 -32.5t33.5 -21t46 -7.5q12 0 32 4q20 5 44 16v-150 q-24 -14 -50 -20t-46 -6q-69 0 -120 17t-84 50t-49 81.5t-16 111.5z" />
<glyph unicode="&#xe26;" horiz-adv-x="770" d="M18 0v146h68v440q0 12 -3.5 24t-11 23t-18.5 19q-11 10 -27 14q29 58 67 101t82.5 71.5t96 42.5t107.5 14q40 0 78.5 -6.5t73 -20.5t64 -34.5t50.5 -48t33 -61.5t12 -75v-935h-182v908q0 27 -9 49.5t-26 37.5t-42 24t-59 9q-49 0 -80.5 -14t-57.5 -40q16 -16 25 -34 t9 -46v-608h-250z" />
<glyph unicode="&#xe27;" horiz-adv-x="653" d="M37 540q0 70 17.5 134t51.5 113t86 77.5t122 28.5q44 0 82 -9.5t71 -31t59 -56t44.5 -85.5t28 -118t9.5 -155q0 -46 -4.5 -96.5t-17 -100t-33.5 -95.5t-53 -80.5t-77 -55t-105 -20.5q-63 0 -110.5 21t-81 57t-54 86t-29.5 108h191q4 -24 10 -46t15.5 -38t24 -25t34.5 -9 q26 0 45 23t32 64t19 94t6 113q0 20 -1 51t-4 64t-9.5 66.5t-18.5 60t-30.5 43.5t-44.5 17q-18 0 -32 -9t-24.5 -24t-18 -35t-12.5 -42t-7 -45t-1 -45h-180z" />
<glyph unicode="&#xe28;" horiz-adv-x="780" d="M80 0v641q0 60 23 107.5t64 80t98 49.5t124 17q39 0 73 -6q34 -7 66 -19q10 5 18 14.5t13 20.5t7 22t2 19h186q-1 -24 -6.5 -49t-16.5 -48t-29 -43q-16 -19 -42 -32q18 -28 28 -61t10 -72v-641h-180v614q0 28 -6.5 51t-22 40t-40 27t-60.5 10t-60.5 -9.5t-39.5 -26 t-21 -40.5t-6 -52v-126q18 16 37 27t42 18t50 10t61 2v-168q-46 4 -81 -5.5t-59.5 -29t-37 -49t-12.5 -65.5v-228h-182z" />
<glyph unicode="&#xe29;" horiz-adv-x="782" d="M82 238v646h182v-630q0 -54 32 -81t93 -27q58 0 92.5 26t34.5 82v144h-202v214h157v-70h45v342h182v-342h76v-144h-76v-160q0 -41 -12.5 -75.5t-34.5 -61.5t-52 -47.5t-64.5 -34t-71.5 -20.5t-74 -7t-74 7t-71 20.5t-64 34t-51.5 47.5t-34 61t-12.5 76z" />
<glyph unicode="&#xe2a;" horiz-adv-x="766" d="M43 254q0 9 1 25t5.5 35.5t12.5 41.5t24 44t39 40.5t57 32.5q12 5 37.5 13t56.5 17.5t64.5 20t62 20t49 18t25.5 14.5q6 4 8.5 10t4 15t2 18.5t0.5 19.5q0 29 -7 48.5t-21 31t-35 16.5t-50 5q-34 0 -58 -10t-40 -28t-24.5 -44t-10.5 -60h-182q3 78 29.5 133.5t70.5 91.5 t102 53t125 17q39 0 68 -4.5t55 -14.5q10 6 17 15t11.5 19t6.5 19.5t2 16.5h189q-1 -22 -7 -46t-18 -46t-30.5 -42t-43.5 -34q20 -36 26.5 -71.5t6.5 -63.5v-641h-182v430q-24 -16 -51 -25t-54.5 -17t-55 -17t-55.5 -21q-13 -6 -22.5 -16t-15.5 -23t-9 -28t-3 -31 q0 -22 6.5 -41t20 -32.5t33.5 -21t46 -7.5q12 0 32 4q20 5 44 16v-150q-24 -14 -50 -20t-46 -6q-69 0 -120 17t-84 50t-49 81.5t-16 111.5z" />
<glyph unicode="&#xe2b;" horiz-adv-x="780" d="M82 0v884h182v-270l272 270h228l-184 -176q34 -20 56 -48.5t35.5 -63t19 -75.5t5.5 -85v-436h-182v452q0 22 -3 42.5t-10 38t-18 31.5t-29 24l-190 -190v-398h-182z" />
<glyph unicode="&#xe2c;" horiz-adv-x="942" d="M30 884h191l59 -538l103 373h131l104 -389l38 264q4 30 5.5 58t-6 48t-26.5 33t-55 15l-23 132q38 0 73.5 9t62.5 24t45 38t22 55h198q-6 -44 -19 -79t-32 -62t-41 -45q-22 -20 -47 -30q14 -18 22.5 -35.5t12.5 -37t3 -42.5t-5 -49l-104 -626h-166l-130 416l-126 -416 h-164z" />
<glyph unicode="&#xe2d;" horiz-adv-x="782" d="M70 469v67h307v-149h-121q2 -54 9.5 -99.5t22.5 -77.5t39.5 -50t61.5 -18q40 0 66.5 21.5t41.5 60.5t21 92.5t6 117.5q0 83 -7 140.5t-24 94t-42.5 53t-61.5 16.5q-22 0 -40.5 -6t-32.5 -20t-26 -36t-20 -54h-192q31 136 109.5 202.5t201.5 66.5q84 0 144.5 -28.5 t100 -82.5t58 -132t18.5 -175q0 -94 -10 -166.5t-29 -126.5t-47 -90.5t-64 -59t-79 -32.5t-92 -10q-48 0 -90.5 9.5t-78 32t-63.5 59t-47.5 90t-29.5 125.5t-10 165z" />
<glyph unicode="&#xe2e;" horiz-adv-x="786" d="M70 469v67h307v-149h-121q2 -54 9.5 -99.5t22.5 -77.5t39.5 -50t61.5 -18q40 0 66.5 21.5t41.5 60.5t21 92.5t6 117.5q0 83 -7 140.5t-24 94t-42.5 53t-61.5 16.5q-22 0 -40.5 -6t-32.5 -20t-26 -36t-20 -54h-192q31 136 109.5 202.5t201.5 66.5q75 -1 135 -25 q9 6 16 15.5t11 20t6 20.5t2 18h191q-1 -23 -7.5 -47.5t-20 -48t-34 -43.5t-47.5 -33q36 -54 52.5 -128t16.5 -167q0 -94 -10 -166.5t-29 -126.5t-47 -90.5t-64 -59t-79 -32.5t-92 -10q-48 0 -90.5 9.5t-78 32t-63.5 59t-47.5 90t-29.5 125.5t-10 165z" />
<glyph unicode="&#xe2f;" horiz-adv-x="753" d="M45 666q0 40 11.5 71.5t30.5 56t45 41.5t54 28t57 16t56 5h101v-149h-66q-12 0 -30 -2.5t-35 -9.5t-29 -21t-12 -38q0 -16 5 -32.5t19 -29t37 -20.5t59 -8q80 0 121 27t41 87v196h180v-884h-180v461q-32 -22 -73.5 -32.5t-86.5 -10.5q-75 0 -132.5 18t-95.5 50t-57.5 78 t-19.5 102z" />
<glyph unicode="&#xe30;" horiz-adv-x="475" d="M64 114v216h153v-78h213v-138h-366zM64 572v214h153v-78h213v-136h-366z" />
<glyph unicode="&#xe31;" d="M-492 1002v210h150v-67h381v-143h-531z" />
<glyph unicode="&#xe32;" horiz-adv-x="633" d="M10 614q0 68 23 121t61.5 88t87.5 53q48 19 100 19q60 0 110.5 -16.5t86 -49.5t55 -83t19.5 -118v-628h-183v628q0 56 -22 85t-66 29q-40 0 -64 -34t-28 -94h-180z" />
<glyph unicode="&#xe33;" horiz-adv-x="633" d="M-338 1108q0 34 13 64.5t35 53t52 35.5t64 13t64.5 -13t53 -35.5t35.5 -53t13 -64.5t-13 -64t-35.5 -52t-53 -35t-64.5 -13t-64 13t-52 35t-35 52t-13 64zM-228 1108q0 -10 4.5 -20t12 -17.5t17 -12t20.5 -4.5q12 0 22 4.5t17 12t11.5 17.5t4.5 20q0 12 -4.5 22t-11.5 17 t-17 12t-22 5q-11 0 -20.5 -5t-17 -12t-12 -17t-4.5 -22zM10 614q0 68 23 121t61.5 88t87.5 53q48 19 100 19q60 0 110.5 -16.5t86 -49.5t55 -83t19.5 -118v-628h-183v628q0 56 -22 85t-66 29q-40 0 -64 -34t-28 -94h-180z" />
<glyph unicode="&#xe34;" d="M-715 994l72 142h563v-142h-635z" />
<glyph unicode="&#xe35;" d="M-715 994l72 142h401v128h162v-270h-635z" />
<glyph unicode="&#xe36;" d="M-715 994l72 142h305q0 29 11.5 55.5t31 46t45.5 31t56 11.5q29 0 55 -11.5t45.5 -31t31 -45.5t11.5 -56q0 -29 -11.5 -54.5t-31 -45.5t-46 -31t-54.5 -11h-521zM-240 1134q0 -18 14 -31t32 -13t31 13t13 31t-13 32t-31 14t-32 -14t-14 -32z" />
<glyph unicode="&#xe37;" d="M-715 994l72 142h221v128h144v-128h55v128h143v-270h-635z" />
<glyph unicode="&#xe38;" d="M-305 -110h225v-346h-160v212h-65v134z" />
<glyph unicode="&#xe39;" d="M-559 -110h221v-170q0 -64 52 -64q50 0 50 64v170h156v-170q-1 -40 -12 -76t-35.5 -63.5t-63.5 -43.5t-95 -16q-57 0 -96.5 16t-63.5 43.5t-36 63.5t-12 76v36h-65v134z" />
<glyph unicode="&#xe3a;" d="M-280 -219q0 22 8 41.5t21 34t31.5 23t39.5 8.5q22 0 41.5 -8.5t34 -23t22.5 -33.5t8 -42q0 -21 -8 -39t-22.5 -32t-34 -22t-41.5 -8q-21 0 -39.5 8t-31.5 22t-21 32t-8 39z" />
<glyph unicode="&#xe3e;" />
<glyph unicode="&#xe3f;" horiz-adv-x="862" d="M86 0v1044h282v92h120v-92q74 -2 128 -22t88.5 -56t51 -85.5t16.5 -108.5q0 -36 -4 -67t-14.5 -57.5t-29 -49t-46.5 -39.5q30 -17 53 -42t38 -55t22 -66q7 -34 7 -72q2 -156 -76 -238q-76 -82 -234 -86v-162h-120v162h-282zM274 164h94v299h-94v-299zM274 622h92h2v256 h-4h-90v-256zM488 164q63 6 90.5 42.5t27.5 107.5q0 39 -9 65t-25.5 42.5t-38 25t-45.5 12.5v-295zM488 631q20 4 36 13.5t27 24.5t17 37t6 52q0 26 -5 45t-15 32.5t-26 22.5q-16 8 -40 14v-241z" />
<glyph unicode="&#xe40;" horiz-adv-x="309" d="M64 0v884h182v-884h-182z" />
<glyph unicode="&#xe41;" horiz-adv-x="585" d="M64 0v884h182v-884h-182zM340 0v884h182v-884h-182z" />
<glyph unicode="&#xe42;" horiz-adv-x="372" d="M-41 1128l39 144h436l74 -144h-293q30 -25 45.5 -60.5t15.5 -80.5v-841h96v-146h-278v979q0 30 -10.5 57.5t-28.5 48t-42.5 32t-53.5 11.5z" />
<glyph unicode="&#xe43;" horiz-adv-x="366" d="M-90 1032q0 73 21 124.5t57 83.5t83 46t97 14q46 0 88 -11t74.5 -34.5t52 -58.5t19.5 -82q0 -26 -6 -46t-18 -39.5t-30.5 -39t-44.5 -45.5q-12 -12 -18.5 -24t-9.5 -24t-4 -26q-1 -12 -1 -28v-696h96v-146h-278v828q0 39 4.5 69.5t14.5 55.5t26 46t39 41q9 8 19.5 17.5 t19.5 18t15 17t6 15.5t-4 14t-12 12.5t-18.5 9t-23.5 3.5q-16 0 -32 -4t-29 -16.5t-21 -35t-8 -59.5h-174z" />
<glyph unicode="&#xe44;" horiz-adv-x="372" d="M-131 1128l73 144h430l40 -144q-28 0 -53 -11.5t-43 -32t-29 -47.5t-11 -58v-833h96v-146h-278v987q0 45 16 81t46 60h-287z" />
<glyph unicode="&#xe45;" horiz-adv-x="628" d="M10 614q0 68 23 121t61.5 88t87.5 53q48 19 100 19q49 0 97.5 -15.5t87.5 -46.5t62.5 -77t23.5 -107v-935h-183v914q0 56 -22 85t-66 29q-40 0 -64 -34t-28 -94h-180z" />
<glyph unicode="&#xe46;" horiz-adv-x="733" d="M49 618q0 52 11.5 99t39 85t74 63.5t117.5 35.5l65 -71l58 71q56 -4 95 -19.5t66 -38.5t43.5 -52t25 -63t11.5 -71t3 -75v-866h-187v880q0 16 -0.5 34t-2.5 35t-6 31t-10 21l-56 -65q-9 -9 -18.5 -15.5t-19 -7t-20.5 4.5q-10 6 -20 18l-58 65q-16 -16 -21 -44.5t-3 -60.5 q0 -12 2 -25t8 -23t16 -17q8 -7 22 -7h23v-170h-29q-42 0 -83 16t-73.5 47t-52.5 77t-20 108z" />
<glyph unicode="&#xe47;" d="M-706 1190q0 40 9 71t24 54t36 38.5t44 25t47 13.5t46 4h426v-126h-420q-18 0 -30 -6.5t-20 -17t-11.5 -24.5t-3.5 -30q0 -14 2.5 -27t7.5 -24t14 -17t23 -6t23 7t15 19t8.5 30t2.5 40h117q0 -22 2.5 -40t8.5 -30t15.5 -19t24.5 -7q14 0 22 7t11.5 20t3.5 31q0 16 -2 38 h146q3 -67 -9.5 -111t-36 -70t-56 -35.5t-68.5 -6.5q-21 1 -39 7t-32.5 15.5t-26.5 21t-22 24.5q-8 -12 -20 -24.5t-28 -22t-34 -15.5t-40 -6q-47 0 -81.5 16t-56.5 43.5t-32 63.5t-10 76z" />
<glyph unicode="&#xe48;" d="M-236 1321v233h154v-233h-154z" />
<glyph unicode="&#xe49;" d="M-490 1460v117h208v-127q28 3 50 13.5t38 27t24 38.5t8 48h148q0 -50 -20 -95.5t-57.5 -80t-91.5 -56t-122 -22.5h-111v137h-74z" />
<glyph unicode="&#xe4a;" d="M-578 1321q0 62 11 103t29.5 66t43 35.5t52.5 10.5q32 0 54 -15t36 -36q14 22 38 36.5t58 14.5q22 0 40 -4.5t32.5 -15t24.5 -27.5q9 -17 15 -41q12 17 20 43.5t8 60.5h128q0 -38 -11 -76t-31 -70.5t-49 -55t-65 -29.5h-104q0 10 -1 26t-4 31t-9 26t-14 11 q-9 0 -15.5 -9.5t-9.5 -23.5t-4.5 -30.5t-1.5 -30.5h-93q0 14 -1 30.5t-4.5 30.5t-9.5 23.5t-15 9.5t-14.5 -11t-9 -26t-4.5 -31t-1 -26h-119z" />
<glyph unicode="&#xe4b;" d="M-346 1436v122h125v109h135v-109h127v-122h-127v-115h-135v115h-125z" />
<glyph unicode="&#xe4c;" d="M-236 1237q0 48 21 93.5t60.5 80.5t97 56t131.5 22v-125q-40 0 -70 -9t-50 -26t-30 -40t-10 -52h-150z" />
<glyph unicode="&#xe4d;" d="M-338 1108q0 34 13 64.5t35 53t52 35.5t64 13t64.5 -13t53 -35.5t35.5 -53t13 -64.5t-13 -64t-35.5 -52t-53 -35t-64.5 -13t-64 13t-52 35t-35 52t-13 64zM-228 1108q0 -10 4.5 -20t12 -17.5t17 -12t20.5 -4.5q12 0 22 4.5t17 12t11.5 17.5t4.5 20q0 12 -4.5 22t-11.5 17 t-17 12t-22 5q-11 0 -20.5 -5t-17 -12t-12 -17t-4.5 -22z" />
<glyph unicode="&#xe4e;" d="M-381 1034q0 38 8 75.5t26.5 70t48.5 55.5q28 23 72 33q12 67 77 104.5t182 42.5v-127q-36 0 -60.5 -5.5t-39.5 -17t-21 -29.5t-6 -44v-31h-35q-32 0 -51 -9.5t-29.5 -26.5t-14.5 -40t-4 -51h-153z" />
<glyph unicode="&#xe4f;" horiz-adv-x="1044" d="M62 452q0 64 16 123t46 110.5t72 93.5t93 72t110 46.5t123 16.5t123 -16.5t110 -46.5t93 -72t72 -93.5t46.5 -110.5t16.5 -123t-16.5 -123t-46.5 -110t-72 -93t-93 -72t-110 -46t-123 -16t-123 16t-110 46t-93 72t-72 93t-46 110t-16 123zM194 454q0 -45 12 -86.5 t33.5 -78t51 -66t66.5 -51.5t78.5 -33.5t86.5 -11.5t87 11.5t78.5 33.5t66.5 51.5t51 66t33 78.5t12 86q0 45 -12 87.5t-33 78.5t-51 66t-66.5 51.5t-78.5 33t-87 11.5t-86.5 -11.5t-78.5 -33t-66.5 -51.5t-51 -66t-33.5 -78.5t-12 -87.5zM291 454q0 48 18.5 90t49.5 74 t73 50t90 18t90 -18t73.5 -50t50 -74t18.5 -90t-18.5 -90t-50 -73t-73.5 -49.5t-90 -18.5t-90 18.5t-73 49.5t-49.5 73t-18.5 90zM408 454q0 -24 9 -44.5t24 -36t36 -24.5t45 -9t45 9t36.5 24.5t24.5 36t9 44.5t-9 45t-24.5 37t-36.5 25t-45 9t-45 -9t-36 -25t-24 -37 t-9 -45z" />
<glyph unicode="&#xe50;" horiz-adv-x="895" d="M43 406q0 86 26.5 155t78.5 118t127 75t171 26t171 -26t127 -75t79 -118t27 -155q0 -81 -14 -144t-40 -109.5t-62.5 -79t-81 -52.5t-96.5 -28.5t-110 -8.5q-86 0 -159 20.5t-127.5 69.5t-85.5 130q-31 82 -31 202zM223 377q0 -54 15.5 -98.5t44.5 -75.5t71 -49 q40 -17 92 -17t93 17.5t70 48.5t45 75.5t16 98.5q0 69 -17.5 116.5t-47.5 77t-70.5 42.5t-88.5 13q-46 0 -86.5 -13t-71 -42.5t-48 -77t-17.5 -116.5z" />
<glyph unicode="&#xe51;" horiz-adv-x="887" d="M0 127l131 103q22 -33 54 -53t68.5 -30.5t75.5 -13.5t77 -2q58 0 105 20t80.5 56.5t52.5 88.5q18 52 18 116q0 49 -13.5 90.5t-41 71.5t-69.5 47.5t-100 17.5q-46 0 -84 -10.5t-65 -28.5t-42 -43t-15 -55q0 -28 10 -51.5t34 -39t66 -20.5t104 5v-138q-18 -4 -33 -6 t-28 -3.5t-24 -2t-23 -0.5q-62 0 -114.5 18t-91.5 50t-61 77t-22 99q0 52 15 93.5t41.5 74t63 56t79 39t90.5 22.5t96 7q87 0 161.5 -20.5t130 -65t87 -114.5t31.5 -168q0 -93 -28 -171.5t-82.5 -135.5t-135.5 -89t-188 -32q-49 0 -101.5 4.5t-105.5 19.5t-104.5 43 t-98.5 74z" />
<glyph unicode="&#xe52;" horiz-adv-x="1032" d="M-24 731l32 156q51 0 92.5 -13.5t71.5 -42t47 -72t17 -101.5v-328q0 -38 18.5 -71.5t55.5 -58t92.5 -38.5t127.5 -14q69 0 118 13t79.5 34.5t44.5 49.5t14 58v229q0 40 -13 62t-40 30l-113 -96l-110 92q-8 -2 -17 -9t-16 -19t-11.5 -27t-4.5 -33v-55q0 -20 2.5 -38 t8.5 -31.5t16 -22t24 -8.5h47v-145h-61q-50 0 -86 11t-60 30.5t-37.5 44.5t-20.5 51.5t-9 52.5q-3 26 -3 47v53q0 50 18 94t51 79t81 58t110 29l76 -65q18 16 38 32.5t36 30.5q60 -3 111 -21.5t88 -49.5t57 -72.5t20 -91.5v-217q0 -59 -14 -107t-41 -85.5t-63.5 -64.5 t-80.5 -44.5t-94.5 -26t-102.5 -8.5h-72q-106 0 -190 25t-141 71t-86.5 111t-29.5 145v287q0 28 -4 46.5t-13.5 30.5t-23.5 18q-14 5 -36 5z" />
<glyph unicode="&#xe53;" horiz-adv-x="909" d="M49 342v76q0 89 19.5 154t58.5 109t97 69q56 24 132 32l98 -84l107 84q77 -6 133 -31t93 -64t55 -90t18 -107v-490h-182v490q0 27 -7 48.5t-18 37.5t-26 26t-31 12l-144 -108l-130 108q-14 -2 -30.5 -12t-30 -32t-21.5 -57t-8 -87v-98v-39t3 -41t8 -39t14 -33t23 -22 q16 -8 36 -8q17 0 42 1q26 1 58 11v-154q-13 -4 -32.5 -6.5t-40 -4t-40.5 -1.5q-21 -1 -35 0q-55 6 -92.5 26t-61.5 48.5t-37.5 63.5t-19.5 71.5t-7 72.5t-1 68z" />
<glyph unicode="&#xe54;" horiz-adv-x="880" d="M43 332v108q0 86 29.5 149t83.5 104t130 60t170 19h134q26 0 43 8t27 22.5t14 35t4 46.5h184q0 -32 -4 -64t-16 -62t-31 -56t-49 -45.5t-72 -31t-98 -11.5h-150q-50 0 -90 -8.5t-68 -28t-43 -49.5t-15 -74v-122q0 -37 10 -68.5t32 -55t56 -38.5q32 -14 78 -16 q-18 22 -30 51t-12 67q0 12 2 31t10.5 39t25 40t46.5 36t75 26t109 10v-153q-32 0 -50 -6t-26 -14.5t-10 -17t-2 -13.5q0 -21 8 -38.5t21 -30.5t29.5 -20t32.5 -7h211v-154h-440q-70 0 -124.5 15t-94.5 39.5t-66.5 58t-43 70t-23.5 75t-7 74.5z" />
<glyph unicode="&#xe55;" horiz-adv-x="880" d="M43 332v108q0 68 18.5 122t53 93t84 65t113.5 38q-4 10 -5.5 22.5t-1.5 24.5q0 33 12 62t33 50t49.5 33t61.5 12t62 -12t50 -33t33 -50t12 -62q0 -8 -1 -15.5t-3 -15.5q36 8 50 36t14 74h184q0 -32 -4 -64t-16 -62t-31 -56t-49 -45.5t-72 -31t-98 -11.5h-150 q-50 0 -90 -8.5t-68 -28t-43 -49.5t-15 -74v-122q0 -37 10 -68.5t32 -55.5t55 -38t79 -16q-18 22 -30 51t-12 67q0 12 2 31t10.5 39t25 40t46.5 36t75 26t109 10v-153q-32 0 -50 -6t-26 -14.5t-10 -17t-2 -13.5q0 -21 8 -38.5t21 -30.5t29.5 -20t32.5 -7h211v-154h-440 q-70 0 -124.5 15t-94.5 39.5t-66.5 58t-43 70t-23.5 75t-7 74.5zM416 805q0 -20 13 -33.5t32 -13.5q22 0 35.5 13t13.5 34q0 22 -14 35.5t-35 13.5q-19 0 -32 -13.5t-13 -35.5z" />
<glyph unicode="&#xe56;" horiz-adv-x="921" d="M6 770l148 88l84 -137q20 10 45.5 20.5t58 18.5t70.5 14t82 8q78 2 137 -11t103 -39t73 -61t46.5 -76.5t24.5 -86.5q6 -46 6 -92v-68q0 -73 -25 -139.5t-76 -116t-129 -77.5t-183 -25q-78 2 -141.5 22t-108 54t-68.5 81t-24 103t18.5 95t53.5 64t84 36t111 11h56v-144 h-50q-27 0 -44.5 -5t-27.5 -14t-14 -21t-4 -28q0 -20 11.5 -38t33.5 -30.5t52.5 -20t69.5 -7.5q46 -1 86.5 12.5t70.5 39t48 62.5t18 84v66q0 56 -14 95t-40 65t-64 38t-84 12q-44 0 -84 -5.5t-79 -19t-79 -34.5t-84 -53z" />
<glyph unicode="&#xe57;" horiz-adv-x="1073" d="M66 340v78q0 168 78 259t228 107l74 -78l78 76q88 -8 144 -37t88 -75.5t43.5 -109t11.5 -138.5q0 -30 -1 -52t-3.5 -42t-5.5 -39.5t-7 -42.5q24 36 38 76t14 92v242q0 60 16 103t45 72t70 42.5t92 13.5l31 -156q-21 0 -35.5 -5.5t-24 -17.5t-14 -31t-4.5 -46v-205 q0 -46 -9 -93t-28 -91t-47.5 -84.5t-67 -74t-86.5 -57.5t-106 -36l-133 96q34 34 52.5 65t26.5 62t9.5 62t1.5 65v82q0 47 -5 80.5t-14.5 55.5t-23.5 34t-33 16l-113 -108l-110 110q-16 -4 -32 -16t-28 -35t-20 -57t-8 -82v-76q0 -16 1 -37t4 -42t9 -41.5t16 -36.5t24 -25.5 t34 -9.5q12 0 31 2t45 10v-154q-22 -8 -48 -13q-24 -5 -52 -5q-44 0 -79 14.5t-62 39.5t-46.5 58.5t-32 72.5t-19.5 80.5t-7 82.5z" />
<glyph unicode="&#xe58;" horiz-adv-x="913" d="M60 284v150q0 79 24 141.5t72 106.5t120 67q70 23 166 23h172q27 0 44.5 8t27.5 22.5t14 35t4 46.5h187q0 -32 -4.5 -64t-16 -62.5t-31 -57t-49.5 -46.5t-71 -32t-97 -12h-194q-48 0 -83 -13t-57.5 -35t-33 -50t-10.5 -58v-170q0 -24 6 -46t17.5 -38t27 -26t33.5 -12 l133 110l139 -110q17 2 30.5 7t23.5 16.5t15 31.5q5 19 5 51q0 14 -1 29t-6 28t-16 21t-31 10h-42v142h48q51 0 88.5 -9.5t62.5 -25.5t41 -37.5t24 -47t11 -53t3 -55.5q0 -69 -16 -121t-50 -87t-89 -52.5t-133 -17.5l-107 80l-97 -80q-78 5 -135 30.5t-95 64.5t-56 90 t-18 107z" />
<glyph unicode="&#xe59;" horiz-adv-x="938" d="M62 338v70q0 90 11 160t41.5 118t83.5 73t136 25q23 0 45.5 -2t44.5 -9t42 -18t38 -30q22 26 54 37q30 12 66 10h68q26 0 42 8t25.5 22.5t13 35t3.5 46.5h182q0 -32 -3 -64t-13 -61.5t-28 -55.5t-47 -45.5t-71 -30.5t-98 -11h-26q-14 0 -24 -1.5t-16 -9t-9 -22.5t-3 -41 l222 -542h-190l-222 553q-9 22 -19.5 37.5t-22 24.5t-25.5 12.5t-31 3.5q-25 0 -41.5 -11.5t-27.5 -37.5t-15 -68t-4 -100v-88q1 -26 2.5 -56.5t9.5 -56t24 -42.5t46 -17q6 0 21 1t34 7l29 -152q-28 -9 -64 -13q-38 -4 -70 -1q-54 6 -91 24.5t-61 45t-36.5 59.5t-18.5 68.5 t-6.5 72.5t-0.5 72z" />
<glyph unicode="&#xe5a;" horiz-adv-x="1026" d="M45 666q0 40 11.5 71.5t30.5 56t45 41.5t54 28t57 16t56 5h101v-149h-66q-12 0 -30 -2.5t-35 -9.5t-29 -21t-12 -38q0 -16 5 -32.5t19 -29t37 -20.5t59 -8q80 0 121 27t41 87v196h180v-884h-180v461q-32 -22 -73.5 -32.5t-86.5 -10.5q-75 0 -132.5 18t-95.5 50t-57.5 78 t-19.5 102zM782 0v884h180v-884h-180z" />
<glyph unicode="&#xe5b;" horiz-adv-x="1853" d="M66 454q0 47 9.5 95.5t29 94t49.5 85t70.5 69.5t91 47t112.5 17q59 0 104.5 -13.5t80.5 -37t58.5 -56.5t38 -71t21.5 -80t7 -84l-164 -2q0 43 -7 76t-22 56t-39 36q-26 12 -60 14q-53 0 -91.5 -20t-63 -54.5t-36 -81t-11.5 -98.5q0 -50 19 -97t54 -82.5t84.5 -57 t110.5 -21.5q59 0 105.5 18t81.5 50t60 76t40.5 96t23 110t7.5 120l118 59q23 -23 44.5 -48t40.5 -49.5t35 -48t28 -43.5q12 18 26 40t31 45t36 47t38 46q18 -27 35.5 -53t33.5 -49.5t29 -43.5t23 -34q9 12 18.5 25t19 25t17 21t12.5 13h283l108 -164h-336l-4 -6 q-11 -14 -23.5 -32t-28.5 -42t-33 -54t-37 -70q-17 32 -33.5 62t-32 57t-28.5 49t-23 38q-14 -21 -31 -48.5t-35 -61.5t-35.5 -73t-31.5 -81q-32 88 -64.5 152t-58.5 104q-10 -58 -32.5 -111t-54.5 -100t-73 -85t-89 -66t-102.5 -43t-113.5 -15q-71 0 -131 18t-109 49 t-86.5 72.5t-62.5 90t-38 100.5t-13 104z" />
<glyph unicode="&#x2000;" horiz-adv-x="833" />
<glyph unicode="&#x2001;" horiz-adv-x="1667" />
<glyph unicode="&#x2002;" horiz-adv-x="833" />
<glyph unicode="&#x2003;" horiz-adv-x="1667" />
<glyph unicode="&#x2004;" horiz-adv-x="555" />
<glyph unicode="&#x2005;" horiz-adv-x="416" />
<glyph unicode="&#x2006;" horiz-adv-x="277" />
<glyph unicode="&#x2007;" horiz-adv-x="277" />
<glyph unicode="&#x2008;" horiz-adv-x="208" />
<glyph unicode="&#x2009;" horiz-adv-x="333" />
<glyph unicode="&#x200a;" horiz-adv-x="92" />
<glyph unicode="&#x200b;" />
<glyph unicode="&#x2010;" horiz-adv-x="585" d="M82 282v142h422v-142h-422z" />
<glyph unicode="&#x2011;" horiz-adv-x="585" d="M82 282v142h422v-142h-422z" />
<glyph unicode="&#x2012;" horiz-adv-x="585" d="M82 282v142h422v-142h-422z" />
<glyph unicode="&#x2013;" horiz-adv-x="731" d="M0 360v144h731v-144h-731z" />
<glyph unicode="&#x2014;" horiz-adv-x="1466" d="M0 360v144h1466v-144h-1466z" />
<glyph unicode="&#x2018;" horiz-adv-x="325" d="M78 717v147q0 36 8 71t27 65t52 54q33 26 85 40v-105q-22 -4 -35.5 -15t-21 -26t-11.5 -32.5t-4 -33.5h72v-165h-172z" />
<glyph unicode="&#x2019;" horiz-adv-x="325" d="M78 694v104q22 4 35 15t21 26t11 32.5t5 33.5h-72v166h172v-147q-1 -36 -8.5 -71t-26.5 -65.5t-52 -54.5q-33 -25 -85 -39z" />
<glyph unicode="&#x201c;" horiz-adv-x="571" d="M78 717v147q0 36 8 71t27 65t52 54q33 26 85 40v-105q-22 -4 -35.5 -15t-21 -26t-11.5 -32.5t-4 -33.5h72v-165h-172zM326 717v147q0 36 7.5 71t26.5 65t52 54q34 26 86 40v-105q-22 -4 -35.5 -15t-21.5 -26t-11.5 -32.5t-3.5 -33.5h72v-165h-172z" />
<glyph unicode="&#x201d;" horiz-adv-x="571" d="M78 694v104q22 4 35 15t21 26t11 32.5t5 33.5h-72v166h172v-147q-1 -36 -8.5 -71t-26.5 -65.5t-52 -54.5q-33 -25 -85 -39zM326 694v104q22 4 35 15t21 26t11 32.5t5 33.5h-72v166h172v-147q-1 -36 -8.5 -71t-26.5 -65.5t-52 -54.5q-33 -25 -85 -39z" />
<glyph unicode="&#x2022;" horiz-adv-x="608" d="M51 408q0 48 20 91.5t54.5 76t80.5 52t97 19.5q52 0 98 -19.5t80.5 -52t55 -76t20.5 -91.5q0 -50 -20.5 -94.5t-55 -78t-81 -52.5t-97.5 -19q-52 0 -97.5 19t-80 52.5t-54.5 78t-20 94.5z" />
<glyph unicode="&#x202f;" horiz-adv-x="333" />
<glyph unicode="&#x205f;" horiz-adv-x="416" />
<glyph unicode="&#x20ac;" horiz-adv-x="880" d="M26 372v126h97v88h-97v124h107q8 46 20.5 90.5t32 84t48 72.5t67.5 57t89 37.5t114 13.5q84 0 148 -29.5t107 -81.5t64 -121.5t19 -148.5h-188q-1 44 -9.5 83t-26.5 68t-48 45q-30 17 -76 17q-39 0 -68 -15.5t-49 -41.5t-33 -60q-12 -34 -20 -70h182v-124h-194 q-1 -7 -1.5 -14.5t0 -17t1 -23t0.5 -33.5h194v-126h-186q6 -42 17 -81t31 -70t50 -49q32 -18 76 -18q50 0 81.5 23t49.5 61t24 88q7 50 5 104h188q2 -59 -5 -115t-23.5 -105.5t-43 -91t-65 -71.5t-88.5 -46.5t-113 -16.5q-72 0 -127 15t-95 41t-68 63t-45.5 80t-27 91 t-14.5 98h-101z" />
<glyph unicode="&#x2122;" horiz-adv-x="1157" d="M51 926v118h433v-118h-154v-482h-123v482h-156zM526 444v600h160l131 -378q34 94 66.5 190t66.5 188h156v-600h-117l-2 382l-135 -382h-76l-133 382v-382h-117z" />
<glyph unicode="&#x25cc;" horiz-adv-x="983" d="M240 420l65 32q-2 -16 -2 -34q0 -17 2 -31zM309 242l25 67q19 -27 45 -47zM322 600l65 -24q-31 -18 -49 -44zM456 604l36 66l30 -64q-14 2 -28 2q-20 0 -38 -4zM461 230q17 -4 33 -4q14 0 26 4l-28 -62zM600 576l74 24l-27 -70q-19 28 -47 46zM602 260q25 17 43 41 l19 -59zM682 391q2 10 2 27q0 16 -2 32l62 -32z" />
<glyph unicode="&#x25fc;" horiz-adv-x="775" d="M0 0v775h775v-775h-775z" />
<glyph unicode="&#xf700;" horiz-adv-x="702" d="M49 612q4 60 25.5 112t59.5 90t91.5 59.5t122.5 21.5q24 0 48 -3q22 -4 46 -10q17 12 27 30t10 34h191q-2 -22 -9 -45t-18 -45t-27 -41q-14 -19 -34 -33q25 -38 37.5 -91t6.5 -123q-2 -26 -6 -54t-11.5 -61t-19 -74t-28.5 -95t-40.5 -124t-53.5 -160h-195l-114 389h-88 v143h225l73 -284q17 54 28.5 94.5t20 75t14.5 66.5q5 32 11 69q4 36 1 70t-15.5 60.5t-34 42.5t-51.5 16q-51 0 -78 -33q-26 -33 -34 -97h-181z" />
<glyph unicode="&#xf701;" d="M-846 994l72 142h448v-142h-520z" />
<glyph unicode="&#xf702;" d="M-846 994l72 142h288v128h160v-270h-520z" />
<glyph unicode="&#xf703;" d="M-846 994l72 142h184q0 29 11.5 55.5t31 46t45.5 31t56 11.5q29 0 55 -11.5t45.5 -31t31 -45.5t11.5 -56q0 -29 -11.5 -54.5t-31 -45.5t-46 -31t-54.5 -11h-400zM-492 1134q0 -18 14 -31t32 -13t31 13t13 31t-13 32t-31 14t-32 -14t-14 -32z" />
<glyph unicode="&#xf704;" d="M-846 994l72 142h110v128h144v-128h55v128h143v-270h-524z" />
<glyph unicode="&#xf705;" d="M-496 998v256h158v-256h-158z" />
<glyph unicode="&#xf706;" d="M-676 1124v123h176v-129q24 4 43 15t31.5 28t19 39t6.5 47h136q0 -49 -18 -94.5t-51 -80.5t-80 -56.5t-105 -21.5h-96v130h-62z" />
<glyph unicode="&#xf707;" d="M-784 994q0 62 10 103t27 66t39 36t44 11q13 0 25 -4.5t21.5 -12t17.5 -17t12 -19.5q12 24 31.5 38.5t50.5 14.5q17 0 32.5 -6t28.5 -18t22 -28q9 -18 13 -38q10 15 18.5 42.5t8.5 61.5h105q0 -37 -9 -74.5t-26 -70.5t-41 -56t-54 -29h-90q0 10 -0.5 27t-3 32.5t-7.5 27 t-13 11.5q-10 0 -15 -10t-8 -25t-3.5 -32t-0.5 -31h-79q0 14 -0.5 31t-3 32t-6.5 25q-6 10 -14 10q-9 0 -14.5 -11.5t-7.5 -27t-3 -32.5t-1 -27h-106z" />
<glyph unicode="&#xf708;" d="M-654 1100v122h114v103h122v-103h117v-122h-117v-111h-122v111h-114z" />
<glyph unicode="&#xf709;" d="M-635 994q0 50 21 95.5t61.5 81t98.5 56.5t132 23v-130q-40 0 -70 -9t-50.5 -25t-31 -40t-10.5 -52h-151z" />
<glyph unicode="&#xf70a;" d="M-256 998v258h176v-258h-176z" />
<glyph unicode="&#xf70b;" d="M-502 1126v128h222v-128q28 3 46 13.5t30 27t17 38.5q5 23 5 49h170q0 -49 -18 -95.5t-54 -82.5t-91 -57t-130 -21h-125v128h-72z" />
<glyph unicode="&#xf70c;" d="M-672 1000q0 72 14 120.5t36 78t50.5 42.5t59.5 13q17 0 31.5 -5.5t27.5 -14t23 -19.5t16 -23q8 13 18 24.5t23 19.5t29.5 13t36.5 5q23 0 44 -8t38 -21.5t29 -33t16 -44.5q14 18 24 50.5t10 72.5h138q0 -43 -11.5 -87.5t-33.5 -82.5t-53.5 -65t-71.5 -35h-119 q0 8 -0.5 19.5t-1.5 24.5t-3 26t-5 23.5t-8 16.5t-13 6q-12 0 -18.5 -12t-10 -29.5t-4.5 -38t-1 -36.5h-103q0 17 -0.5 37t-4 37.5t-10 29.5t-18.5 12q-8 0 -13 -6t-9 -16.5t-6 -23.5t-3 -26t-1 -24.5v-19.5h-142z" />
<glyph unicode="&#xf70d;" d="M-366 1112v125h124v107h150v-107h127v-125h-127v-114h-150v114h-124z" />
<glyph unicode="&#xf70e;" d="M-340 998q0 54 21.5 103.5t64.5 87t107.5 60t150.5 23.5v-134q-44 0 -78 -10t-56.5 -28t-34 -44t-11.5 -58h-164z" />
<glyph unicode="&#xf70f;" horiz-adv-x="1183" d="M22 664q30 59 70 102t87 71.5t99 42t107 13.5q63 0 121 -16.5t102 -47.5t70 -76t26 -104v-385q0 -24 6 -45t17 -36.5t29 -24t42 -8.5h30q24 0 42 8.5t29 24t17 36.5t6 45v620h182v-654q0 -62 -24 -107t-64 -73t-90 -41q-48 -13 -100 -13h-28q-34 0 -67 6t-64 18.5 t-57.5 31.5t-46 45t-30.5 59q-11 34 -11 74v392q0 27 -10 49t-28 37t-43 23.5t-56 8.5q-48 0 -88.5 -14t-62.5 -38q7 -8 12.5 -17t9.5 -19t6 -23t2 -29v-456h86v-144h-268v586q0 12 -3 24t-10 22.5t-18 18.5q-11 9 -29 13z" />
<glyph unicode="&#xf710;" d="M-612 994v210h149v-68h555v-142h-704z" />
<glyph unicode="&#xf711;" d="M-633 1108q0 34 13 64.5t35.5 53t52 35.5t63.5 13t64.5 -13t53 -35.5t35.5 -53t13 -64.5t-13 -64t-35.5 -52t-52.5 -35t-65 -13q-34 0 -63.5 13t-52 35t-35.5 52t-13 64zM-522 1108q0 -10 4 -20t11.5 -17.5t17 -12t20.5 -4.5q12 0 21.5 4.5t17.5 12t12 17.5t4 20 q0 12 -4 22t-12 17t-18 12t-21 5q-10 0 -20 -5t-17.5 -12t-11.5 -17t-4 -22z" />
<glyph unicode="&#xf712;" d="M-846 1190q0 60 18 99.5t47 62t63 31.5t66 9h388v-126h-381q-16 0 -26 -7t-16.5 -17t-8.5 -23t-2 -25t1 -25t4.5 -24t11 -18t21.5 -7q24 0 35 21t11 67h96q0 -23 2 -39.5t6 -27.5t12 -16t21 -5q22 0 29.5 24t5.5 64h141q2 -61 -9.5 -103.5t-32.5 -68.5t-51 -37t-65 -8 q-20 2 -36.5 7.5t-28.5 13.5t-22 18t-17 20q-8 -12 -19 -22t-24.5 -18.5t-30.5 -13.5t-37 -5q-44 0 -76 15.5t-53.5 43t-32 64t-10.5 76.5z" />
<glyph unicode="&#xf713;" d="M-465 1321v233h143v-233h-143z" />
<glyph unicode="&#xf714;" d="M-674 1460v117h207v-127q28 3 50.5 13.5t38.5 27t24 38.5t8 48h148q0 -50 -20 -95.5t-57.5 -80t-91.5 -55.5q-55 -22 -123 -23h-110v137h-74z" />
<glyph unicode="&#xf715;" d="M-742 1321q0 62 11 103t29.5 66t43 35.5t52.5 10.5q32 0 54 -15t36 -36q14 22 38 36.5t58 14.5q22 0 40 -4.5t32.5 -15t25 -27.5t15.5 -41q12 17 19.5 43.5t7.5 60.5h128q0 -38 -11 -76t-31 -70.5t-49 -55t-64 -29.5h-105q0 10 -1 26t-4 31t-9 26q-4 11 -14 11 q-9 0 -15.5 -9.5t-9.5 -23.5t-4.5 -30.5t-1.5 -30.5h-92q0 14 -1.5 30.5t-5 30.5t-9.5 23.5t-15 9.5t-14.5 -11t-8.5 -26t-4 -31t-1 -26h-120z" />
<glyph unicode="&#xf716;" d="M-592 1436v122h125v109h135v-109h127v-122h-127v-115h-135v115h-125z" />
<glyph unicode="&#xf717;" d="M-482 1237q0 48 21 93.5t60.5 80.5t97 56t131.5 22v-125q-40 0 -70 -9t-50 -26t-30 -40t-10 -52h-150z" />
<glyph unicode="&#xf718;" d="M-305 -366h225v-326h-160v192h-65v134z" />
<glyph unicode="&#xf719;" d="M-559 -366h221v-150q0 -64 52 -64q50 0 50 64v150h156v-150q0 -40 -11 -76t-35.5 -63.5t-64 -43.5t-95.5 -16q-57 0 -96.5 16t-63.5 43.5t-36 63.5t-12 76v16h-65v134z" />
<glyph unicode="&#xf71a;" d="M-280 -461q0 22 8 41.5t21 34t31.5 23t39.5 8.5q22 0 41.5 -8.5t34 -23t22.5 -33.5t8 -42q0 -20 -8 -38.5t-22.5 -32t-34 -21.5t-41.5 -8q-21 0 -39.5 8t-31.5 21.5t-21 32t-8 38.5z" />
<glyph unicode="&#xf71d;" horiz-adv-x="860" d="M12 884h191l59 -538l92 373h152l94 -389l37 264q4 30 5.5 58t-5.5 48t-26 33t-56 15l-23 132q38 0 73.5 9t63 24t45 38t21.5 55h199q-6 -44 -19.5 -79t-32 -62t-40.5 -45q-24 -20 -48 -30q14 -18 23 -35.5t12.5 -37t3 -42.5t-4.5 -49l-105 -626h-197l-98 375l-96 -375 h-195z" />
<glyph unicode="&#xf881;" horiz-adv-x="1169" d="M16 666q30 58 70 101t86 71.5t99 42.5t112 14q65 0 125 -18q60 -17 104 -53q42 36 92 53.5t103 17.5q34 0 68 -6.5t65.5 -20.5t59.5 -34.5t48 -48t32 -61.5t12 -75v-935h-184v914q0 28 -7.5 49t-21 35.5t-31.5 22t-41 7.5q-20 0 -38.5 -6t-33.5 -19t-24 -33.5t-11 -50.5 v-919h-182v908q0 27 -9 49.5t-26 37.5t-42 24t-58 9q-26 0 -48.5 -4.5t-42.5 -12t-36 -17.5q-16 -9 -28 -20q16 -17 23 -38.5t7 -43.5v-460h86v-146h-268v584q0 12 -3 24t-10.5 23t-19 20t-27.5 15z" />
<glyph unicode="&#xf882;" horiz-adv-x="1165" d="M14 0v148h76v438q0 12 -3.5 24t-11 23t-19.5 19t-28 12q30 59 69 102t84.5 71.5t98 42t109.5 13.5q30 0 60.5 -4.5t59.5 -12.5t55 -21t46 -29q19 17 43 29.5t49.5 20.5t51.5 12.5t51 4.5q34 0 68 -6.5t65.5 -20.5t58.5 -34t47 -47t32 -61t12 -75v-913h-185v890 q0 56 -26.5 85t-71.5 29q-20 0 -37.5 -6t-31.5 -18t-23 -30t-11 -41v-909h-180v886q0 54 -33 86t-100 32q-52 0 -89.5 -14.5t-57.5 -39.5q7 -9 11.5 -17.5t8.5 -18t5 -21t1 -25.5v-604h-254z" />
<glyph d="M-633 1034q0 38 8 75.5t26.5 70t48 55.5t73.5 33q12 67 76.5 104.5t181.5 42.5v-127q-36 0 -60.5 -5.5t-39.5 -17t-21 -29.5t-6 -44v-31h-35q-32 0 -51 -9.5t-29.5 -26.5t-14 -40t-3.5 -51h-154z" />
<glyph horiz-adv-x="631" d="M-633 1108q0 34 13 64.5t35.5 53t52 35.5t63.5 13t64.5 -13t53 -35.5t35.5 -53t13 -64.5t-13 -64t-35.5 -52t-52.5 -35t-65 -13q-34 0 -63.5 13t-52 35t-35.5 52t-13 64zM-522 1108q0 -10 4 -20t11.5 -17.5t17 -12t20.5 -4.5q12 0 21.5 4.5t17.5 12t12 17.5t4 20 q0 12 -4 22t-12 17t-18 12t-21 5q-10 0 -20 -5t-17.5 -12t-11.5 -17t-4 -22zM-2 614q0 68 24 121t64 88t92 53q50 19 104 19q52 0 102.5 -15.5t91 -46.5t65 -77t24.5 -107v-649h-184v628q0 56 -27 85q-28 29 -72 29q-20 0 -38 -9t-32 -25t-22 -40t-10 -54h-182z" />
<glyph horiz-adv-x="631" d="M-633 1108q0 34 13 64.5t35.5 53t52 35.5t63.5 13t64.5 -13t53 -35.5t35.5 -53t13 -64.5t-13 -64t-35.5 -52t-52.5 -35t-65 -13q-34 0 -63.5 13t-52 35t-35.5 52t-13 64zM-522 1108q0 -10 4 -20t11.5 -17.5t17 -12t20.5 -4.5q12 0 21.5 4.5t17.5 12t12 17.5t4 20 q0 12 -4 22t-12 17t-18 12t-21 5q-10 0 -20 -5t-17.5 -12t-11.5 -17t-4 -22zM-2 614q0 68 24 121t64 88t92 53q50 19 104 19q52 0 102.5 -15.5t91 -46.5t65 -77t24.5 -107v-649h-184v628q0 56 -27 85q-28 29 -72 29q-20 0 -38 -9t-32 -25t-22 -40t-10 -54h-182z" />
<glyph d="M-633 994l72 142h481v-142h-553z" />
<glyph d="M-633 994l72 142h319v128h162v-270h-553z" />
<glyph d="M-633 994l72 142h223q0 29 11.5 55.5t31 46t45.5 31t56 11.5q29 0 55 -11.5t45.5 -31t31 -45.5t11.5 -56q0 -29 -11.5 -54.5t-31 -45.5t-46 -31t-54.5 -11h-439zM-240 1134q0 -18 14 -31t32 -13t31 13t13 31t-13 32t-31 14t-32 -14t-14 -32z" />
<glyph d="M-633 994l72 142h139v128h144v-128h55v128h143v-270h-553z" />
<glyph d="M-908 994l72 142h543v-142h-615z" />
<glyph d="M-908 994l72 142h388v128h159v-270h-619z" />
<glyph d="M-908 994l72 142h294q0 29 11 55.5t31 46t46 31t54 11.5q29 0 55.5 -11.5t46 -31t31 -45.5t11.5 -56q0 -29 -11.5 -54.5t-31 -45.5t-45.5 -31t-56 -11h-508zM-444 1134q0 -18 13 -31t31 -13t32 13t14 31t-14 32t-32 14t-31 -14t-13 -32z" />
<glyph d="M-908 994l72 142h205v128h143v-128h56v128h143v-270h-619z" />
<glyph d="M-436 1321v233h143v-233h-143z" />
<glyph d="M-672 1460v117h207v-127q28 3 50.5 13.5t38.5 27t24 38.5t8 48h148q0 -50 -20 -95.5t-57.5 -80t-91.5 -55.5q-55 -22 -123 -23h-110v137h-74z" />
<glyph d="M-708 1321q0 62 10.5 103t29 66t42.5 36q24 10 52 10q32 0 54 -15t36 -36q14 22 38.5 36.5t58.5 14.5q22 0 40 -4.5t32.5 -15t24.5 -27.5t16 -41q12 17 19 43.5t7 60.5h129q0 -38 -11 -76t-31.5 -70.5t-48.5 -55.5q-28 -22 -64 -29h-105q0 10 -1 26t-4 31t-8.5 26 t-15.5 11q-9 0 -14.5 -9.5t-9.5 -23.5t-5 -30.5t-1 -30.5h-92q0 14 -1.5 30.5t-5 30.5t-9.5 23.5t-15 9.5t-15 -11t-9 -26t-4 -31t-1 -26h-118z" />
<glyph d="M-551 1436v122h125v109h135v-109h127v-122h-127v-115h-135v115h-125z" />
<glyph d="M-889 994l72 142h737v-142h-809z" />
<glyph d="M-889 994l72 142h575v128h162v-270h-809z" />
<glyph d="M-889 994l72 142h479q0 29 11.5 55.5t31 46t45.5 31t56 11.5q29 0 55 -11.5t45.5 -31t31 -45.5t11.5 -56q0 -29 -11.5 -54.5t-31 -45.5t-46 -31t-54.5 -11h-695zM-240 1134q0 -18 14 -31t32 -13t31 13t13 31t-13 32t-31 14t-32 -14t-14 -32z" />
<glyph d="M-889 994l72 142h395v128h144v-128h55v128h143v-270h-809z" />
<glyph d="M-236 1239v233h154v-233h-154z" />
<glyph d="M-490 1378v117h208v-127q57 6 88.5 40t31.5 87h148q0 -50 -20 -95.5t-57.5 -80t-91.5 -56t-122 -22.5h-111v137h-74z" />
<glyph d="M-578 1239q0 62 11 103t29.5 66t43 35.5t52.5 10.5q32 0 54 -15t36 -36q14 22 38 36.5t58 14.5q22 0 40 -4.5t32.5 -15t24.5 -27.5q9 -17 15 -41q12 17 20 43.5t8 60.5h128q0 -38 -11 -76t-31 -70.5t-49 -55t-65 -29.5h-104q0 10 -1 26t-4 31t-9 26t-14 11 q-9 0 -15.5 -9.5t-9.5 -23.5t-4.5 -30.5t-1.5 -30.5h-93q0 14 -1 30.5t-4.5 30.5t-9.5 23.5t-15 9.5t-14.5 -11t-9 -26t-4.5 -31t-1 -26h-119z" />
<glyph d="M-346 1354v122h125v109h135v-109h127v-122h-127v-115h-135v115h-125z" />
<glyph d="M-465 1239v233h143v-233h-143z" />
<glyph d="M-704 1378v117h206v-127q57 6 89 40t32 87h147q0 -50 -19.5 -95.5t-57 -80t-91.5 -56t-122 -22.5h-111v137h-73z" />
<glyph d="M-742 1239q0 62 11 103t29.5 66t43 35.5t52.5 10.5q32 0 54 -15t36 -36q14 22 38 36.5t58 14.5q22 0 40 -4.5t32.5 -15t25 -27.5t15.5 -41q12 17 19.5 43.5t7.5 60.5h128q0 -38 -11 -76t-31 -70.5t-49 -55t-64 -29.5h-105q0 10 -1 26t-4 31t-9 26q-4 11 -14 11 q-9 0 -15.5 -9.5t-9.5 -23.5t-4.5 -30.5t-1.5 -30.5h-92q0 14 -1.5 30.5t-5 30.5t-9.5 23.5t-15 9.5t-14.5 -11t-8.5 -26t-4 -31t-1 -26h-120z" />
<glyph d="M-592 1354v122h125v109h135v-109h127v-122h-127v-115h-135v115h-125z" />
<glyph d="M-414 -110h226v-346h-160v212h-66v134z" />
<glyph d="M-580 -110h222v-170q0 -64 51 -64t51 64v170h156v-170q-1 -40 -12.5 -76t-35.5 -63.5t-63 -43.5t-96 -16t-96 16t-63.5 43.5t-36 63.5t-11.5 76v36h-66v134z" />
<glyph d="M-408 -219q0 22 8 41.5t22 34t32 23t39 8.5q22 0 41.5 -8.5t34 -23t23 -33.5t8.5 -42q0 -21 -8.5 -39t-23 -32t-34 -22t-41.5 -8q-21 0 -39 8t-32 22t-22 32t-8 39z" />
<glyph d="M-408 -110h226v-346h-160v212h-66v134z" />
<glyph d="M-666 -110h222v-170q0 -64 51 -64t51 64v170h156v-170q-1 -40 -12.5 -76t-35.5 -63.5t-63 -43.5t-96 -16t-96 16t-63.5 43.5t-36 63.5t-11.5 76v36h-66v134z" />
<glyph d="M-372 -219q0 22 8 41.5t21 34t31 23.5q20 8 40 8q22 0 41 -8.5t34 -23t23 -33.5t8 -42q0 -21 -8 -39t-23 -32t-34 -22t-41 -8q-20 0 -39 8t-32 22t-21 32t-8 39z" />
<glyph d="M-612 994v210h149v-68h577v-142h-726z" />
<glyph d="M-438 1321v233h143v-233h-143z" />
<glyph d="M-643 1460v117h207v-127q28 3 50.5 13.5t38 27t23.5 38.5t8 48h148q0 -50 -20 -95.5t-57 -80t-91 -56t-123 -22.5h-111v137h-73z" />
<glyph d="M-618 1321q0 62 10.5 103t29 66t42.5 36q24 10 52 10q32 0 54.5 -15t36.5 -36q14 22 38 36.5t58 14.5q22 0 40 -4.5t32.5 -15t24.5 -27.5t16 -41q12 17 19 43.5t7 60.5h130q0 -38 -11 -76t-32 -70.5t-49 -55.5q-28 -22 -64 -29h-105q0 10 -1 26t-4 31t-8.5 26t-15.5 11 q-9 0 -14.5 -9.5t-9.5 -23.5t-5 -30.5t-1 -30.5h-92q0 14 -1.5 30.5t-5 30.5t-9.5 23.5t-15 9.5t-15 -11t-9 -26t-4 -31t-1 -26h-118z" />
<glyph d="M-551 1436v122h125v109h135v-109h127v-122h-127v-115h-135v115h-125z" />
<glyph d="M-760 994l72 142h608v-142h-680z" />
<glyph d="M-760 994l72 142h446v128h162v-270h-680z" />
<glyph d="M-760 994l72 142h350q0 29 11.5 55.5t31 46t45.5 31t56 11.5q29 0 55 -11.5t45.5 -31t31 -45.5t11.5 -56q0 -29 -11.5 -54.5t-31 -45.5t-46 -31t-54.5 -11h-566zM-240 1134q0 -18 14 -31t32 -13t31 13t13 31t-13 32t-31 14t-32 -14t-14 -32z" />
<glyph d="M-760 994l72 142h266v128h144v-128h55v128h143v-270h-680z" />
<glyph d="M-520 1321v233h144v-233h-144z" />
<glyph d="M-647 1436v122h125v109h135v-109h127v-122h-127v-115h-135v115h-125z" />
</font>
</defs>
</svg>
